<svg width="210" height="113" viewBox="0 0 210 113" fill="none" xmlns="http://www.w3.org/2000/svg">
<g filter="url(#filter0_d_15702_31442)">
<path d="M200.892 70.4186C200.157 70.4186 199.494 70.2528 198.901 69.921C198.315 69.5834 197.808 69.1184 197.382 68.526C196.955 67.9337 196.63 67.2495 196.405 66.4735C196.179 65.6916 196.067 64.8564 196.067 63.9679C196.067 63.0793 196.179 62.2441 196.405 61.4622C196.63 60.6803 196.955 59.9961 197.382 59.4097C197.808 58.8173 198.315 58.3553 198.901 58.0236C199.494 57.6859 200.157 57.5171 200.892 57.5171C201.614 57.5171 202.272 57.6859 202.864 58.0236C203.457 58.3553 203.96 58.8173 204.375 59.4097C204.795 59.9961 205.118 60.6803 205.343 61.4622C205.568 62.2441 205.681 63.0793 205.681 63.9679C205.681 64.8564 205.568 65.6916 205.343 66.4735C205.118 67.2495 204.795 67.9337 204.375 68.526C203.96 69.1184 203.457 69.5834 202.864 69.921C202.272 70.2528 201.614 70.4186 200.892 70.4186ZM200.892 68.5705C201.573 68.5705 202.139 68.3572 202.589 67.9307C203.045 67.4983 203.385 66.9326 203.611 66.2336C203.836 65.5346 203.948 64.7794 203.948 63.9679C203.948 63.1149 203.83 62.3418 203.593 61.6488C203.362 60.9498 203.018 60.3959 202.562 59.9872C202.112 59.5726 201.555 59.3652 200.892 59.3652C200.364 59.3652 199.905 59.4896 199.514 59.7384C199.129 59.9872 198.809 60.3278 198.555 60.7602C198.306 61.1927 198.116 61.6843 197.986 62.2352C197.862 62.7861 197.8 63.3637 197.8 63.9679C197.8 64.7794 197.915 65.5346 198.146 66.2336C198.377 66.9326 198.721 67.4983 199.177 67.9307C199.639 68.3572 200.21 68.5705 200.892 68.5705Z" fill="white"/>
<path d="M200.892 70.4186C200.157 70.4186 199.494 70.2528 198.901 69.921C198.315 69.5834 197.808 69.1184 197.382 68.526C196.955 67.9337 196.63 67.2495 196.405 66.4735C196.179 65.6916 196.067 64.8564 196.067 63.9679C196.067 63.0793 196.179 62.2441 196.405 61.4622C196.63 60.6803 196.955 59.9961 197.382 59.4097C197.808 58.8173 198.315 58.3553 198.901 58.0236C199.494 57.6859 200.157 57.5171 200.892 57.5171C201.614 57.5171 202.272 57.6859 202.864 58.0236C203.457 58.3553 203.96 58.8173 204.375 59.4097C204.795 59.9961 205.118 60.6803 205.343 61.4622C205.568 62.2441 205.681 63.0793 205.681 63.9679C205.681 64.8564 205.568 65.6916 205.343 66.4735C205.118 67.2495 204.795 67.9337 204.375 68.526C203.96 69.1184 203.457 69.5834 202.864 69.921C202.272 70.2528 201.614 70.4186 200.892 70.4186ZM200.892 68.5705C201.573 68.5705 202.139 68.3572 202.589 67.9307C203.045 67.4983 203.385 66.9326 203.611 66.2336C203.836 65.5346 203.948 64.7794 203.948 63.9679C203.948 63.1149 203.83 62.3418 203.593 61.6488C203.362 60.9498 203.018 60.3959 202.562 59.9872C202.112 59.5726 201.555 59.3652 200.892 59.3652C200.364 59.3652 199.905 59.4896 199.514 59.7384C199.129 59.9872 198.809 60.3278 198.555 60.7602C198.306 61.1927 198.116 61.6843 197.986 62.2352C197.862 62.7861 197.8 63.3637 197.8 63.9679C197.8 64.7794 197.915 65.5346 198.146 66.2336C198.377 66.9326 198.721 67.4983 199.177 67.9307C199.639 68.3572 200.21 68.5705 200.892 68.5705Z" fill="white"/>
<path d="M185.827 70.1876V68.5438C186.247 68.1943 186.73 67.7886 187.275 67.3265C187.82 66.8586 188.374 66.3639 188.937 65.8427C189.499 65.3155 190.018 64.7912 190.491 64.27C190.965 63.7428 191.347 63.2452 191.638 62.7772C191.934 62.3033 192.082 61.8916 192.082 61.5422C192.082 61.1453 191.984 60.7839 191.789 60.4581C191.599 60.1264 191.341 59.8628 191.016 59.6673C190.69 59.4659 190.329 59.3652 189.932 59.3652C189.535 59.3652 189.171 59.4659 188.839 59.6673C188.513 59.8628 188.249 60.1264 188.048 60.4581C187.853 60.7839 187.755 61.1453 187.755 61.5422H185.907C185.907 60.7899 186.09 60.1116 186.458 59.5074C186.831 58.8973 187.319 58.4145 187.924 58.0591C188.534 57.6978 189.203 57.5171 189.932 57.5171C190.666 57.5171 191.336 57.6978 191.94 58.0591C192.544 58.4204 193.027 58.9062 193.388 59.5163C193.749 60.1205 193.93 60.7958 193.93 61.5422C193.93 61.9568 193.844 62.3833 193.672 62.8216C193.501 63.26 193.261 63.7072 192.953 64.1633C192.651 64.6194 192.298 65.0815 191.895 65.5494C191.493 66.0174 191.06 66.4854 190.598 66.9533C190.136 67.4213 189.665 67.8833 189.185 68.3394H194.037V70.1876H185.827Z" fill="white"/>
<path d="M185.827 70.1876V68.5438C186.247 68.1943 186.73 67.7886 187.275 67.3265C187.82 66.8586 188.374 66.3639 188.937 65.8427C189.499 65.3155 190.018 64.7912 190.491 64.27C190.965 63.7428 191.347 63.2452 191.638 62.7772C191.934 62.3033 192.082 61.8916 192.082 61.5422C192.082 61.1453 191.984 60.7839 191.789 60.4581C191.599 60.1264 191.341 59.8628 191.016 59.6673C190.69 59.4659 190.329 59.3652 189.932 59.3652C189.535 59.3652 189.171 59.4659 188.839 59.6673C188.513 59.8628 188.249 60.1264 188.048 60.4581C187.853 60.7839 187.755 61.1453 187.755 61.5422H185.907C185.907 60.7899 186.09 60.1116 186.458 59.5074C186.831 58.8973 187.319 58.4145 187.924 58.0591C188.534 57.6978 189.203 57.5171 189.932 57.5171C190.666 57.5171 191.336 57.6978 191.94 58.0591C192.544 58.4204 193.027 58.9062 193.388 59.5163C193.749 60.1205 193.93 60.7958 193.93 61.5422C193.93 61.9568 193.844 62.3833 193.672 62.8216C193.501 63.26 193.261 63.7072 192.953 64.1633C192.651 64.6194 192.298 65.0815 191.895 65.5494C191.493 66.0174 191.06 66.4854 190.598 66.9533C190.136 67.4213 189.665 67.8833 189.185 68.3394H194.037V70.1876H185.827Z" fill="white"/>
<path d="M178.918 70.4186C178.183 70.4186 177.52 70.2528 176.927 69.921C176.341 69.5834 175.834 69.1184 175.408 68.526C174.981 67.9337 174.656 67.2495 174.43 66.4735C174.205 65.6916 174.093 64.8564 174.093 63.9679C174.093 63.0793 174.205 62.2441 174.43 61.4622C174.656 60.6803 174.981 59.9961 175.408 59.4097C175.834 58.8173 176.341 58.3553 176.927 58.0236C177.52 57.6859 178.183 57.5171 178.918 57.5171C179.64 57.5171 180.298 57.6859 180.89 58.0236C181.482 58.3553 181.986 58.8173 182.401 59.4097C182.821 59.9961 183.144 60.6803 183.369 61.4622C183.594 62.2441 183.707 63.0793 183.707 63.9679C183.707 64.8564 183.594 65.6916 183.369 66.4735C183.144 67.2495 182.821 67.9337 182.401 68.526C181.986 69.1184 181.482 69.5834 180.89 69.921C180.298 70.2528 179.64 70.4186 178.918 70.4186ZM178.918 68.5705C179.599 68.5705 180.164 68.3572 180.615 67.9307C181.071 67.4983 181.411 66.9326 181.636 66.2336C181.862 65.5346 181.974 64.7794 181.974 63.9679C181.974 63.1149 181.856 62.3418 181.619 61.6488C181.388 60.9498 181.044 60.3959 180.588 59.9872C180.138 59.5726 179.581 59.3652 178.918 59.3652C178.39 59.3652 177.931 59.4896 177.54 59.7384C177.155 59.9872 176.835 60.3278 176.581 60.7602C176.332 61.1927 176.142 61.6843 176.012 62.2352C175.888 62.7861 175.825 63.3637 175.825 63.9679C175.825 64.7794 175.941 65.5346 176.172 66.2336C176.403 66.9326 176.747 67.4983 177.203 67.9307C177.665 68.3572 178.236 68.5705 178.918 68.5705Z" fill="white"/>
<path d="M178.918 70.4186C178.183 70.4186 177.52 70.2528 176.927 69.921C176.341 69.5834 175.834 69.1184 175.408 68.526C174.981 67.9337 174.656 67.2495 174.43 66.4735C174.205 65.6916 174.093 64.8564 174.093 63.9679C174.093 63.0793 174.205 62.2441 174.43 61.4622C174.656 60.6803 174.981 59.9961 175.408 59.4097C175.834 58.8173 176.341 58.3553 176.927 58.0236C177.52 57.6859 178.183 57.5171 178.918 57.5171C179.64 57.5171 180.298 57.6859 180.89 58.0236C181.482 58.3553 181.986 58.8173 182.401 59.4097C182.821 59.9961 183.144 60.6803 183.369 61.4622C183.594 62.2441 183.707 63.0793 183.707 63.9679C183.707 64.8564 183.594 65.6916 183.369 66.4735C183.144 67.2495 182.821 67.9337 182.401 68.526C181.986 69.1184 181.482 69.5834 180.89 69.921C180.298 70.2528 179.64 70.4186 178.918 70.4186ZM178.918 68.5705C179.599 68.5705 180.164 68.3572 180.615 67.9307C181.071 67.4983 181.411 66.9326 181.636 66.2336C181.862 65.5346 181.974 64.7794 181.974 63.9679C181.974 63.1149 181.856 62.3418 181.619 61.6488C181.388 60.9498 181.044 60.3959 180.588 59.9872C180.138 59.5726 179.581 59.3652 178.918 59.3652C178.39 59.3652 177.931 59.4896 177.54 59.7384C177.155 59.9872 176.835 60.3278 176.581 60.7602C176.332 61.1927 176.142 61.6843 176.012 62.2352C175.888 62.7861 175.825 63.3637 175.825 63.9679C175.825 64.7794 175.941 65.5346 176.172 66.2336C176.403 66.9326 176.747 67.4983 177.203 67.9307C177.665 68.3572 178.236 68.5705 178.918 68.5705Z" fill="white"/>
<path d="M163.847 70.1876V68.5438C164.268 68.1943 164.751 67.7886 165.295 67.3265C165.84 66.8586 166.394 66.3639 166.957 65.8427C167.52 65.3155 168.038 64.7912 168.512 64.27C168.986 63.7428 169.368 63.2452 169.658 62.7772C169.954 62.3033 170.102 61.8916 170.102 61.5422C170.102 61.1453 170.005 60.7839 169.809 60.4581C169.62 60.1264 169.362 59.8628 169.036 59.6673C168.71 59.4659 168.349 59.3652 167.952 59.3652C167.555 59.3652 167.191 59.4659 166.859 59.6673C166.534 59.8628 166.27 60.1264 166.069 60.4581C165.873 60.7839 165.775 61.1453 165.775 61.5422H163.927C163.927 60.7899 164.111 60.1116 164.478 59.5074C164.851 58.8973 165.34 58.4145 165.944 58.0591C166.554 57.6978 167.224 57.5171 167.952 57.5171C168.687 57.5171 169.356 57.6978 169.96 58.0591C170.564 58.4204 171.047 58.9062 171.409 59.5163C171.77 60.1205 171.951 60.7958 171.951 61.5422C171.951 61.9568 171.865 62.3833 171.693 62.8216C171.521 63.26 171.281 63.7072 170.973 64.1633C170.671 64.6194 170.319 65.0815 169.916 65.5494C169.513 66.0174 169.081 66.4854 168.619 66.9533C168.157 67.4213 167.686 67.8833 167.206 68.3394H172.057V70.1876H163.847Z" fill="white"/>
<path d="M163.847 70.1876V68.5438C164.268 68.1943 164.751 67.7886 165.295 67.3265C165.84 66.8586 166.394 66.3639 166.957 65.8427C167.52 65.3155 168.038 64.7912 168.512 64.27C168.986 63.7428 169.368 63.2452 169.658 62.7772C169.954 62.3033 170.102 61.8916 170.102 61.5422C170.102 61.1453 170.005 60.7839 169.809 60.4581C169.62 60.1264 169.362 59.8628 169.036 59.6673C168.71 59.4659 168.349 59.3652 167.952 59.3652C167.555 59.3652 167.191 59.4659 166.859 59.6673C166.534 59.8628 166.27 60.1264 166.069 60.4581C165.873 60.7839 165.775 61.1453 165.775 61.5422H163.927C163.927 60.7899 164.111 60.1116 164.478 59.5074C164.851 58.8973 165.34 58.4145 165.944 58.0591C166.554 57.6978 167.224 57.5171 167.952 57.5171C168.687 57.5171 169.356 57.6978 169.96 58.0591C170.564 58.4204 171.047 58.9062 171.409 59.5163C171.77 60.1205 171.951 60.7958 171.951 61.5422C171.951 61.9568 171.865 62.3833 171.693 62.8216C171.521 63.26 171.281 63.7072 170.973 64.1633C170.671 64.6194 170.319 65.0815 169.916 65.5494C169.513 66.0174 169.081 66.4854 168.619 66.9533C168.157 67.4213 167.686 67.8833 167.206 68.3394H172.057V70.1876H163.847Z" fill="white"/>
<path d="M155.499 63.9233H161.186V65.7715H155.499V63.9233Z" fill="white"/>
<path d="M155.499 63.9233H161.186V65.7715H155.499V63.9233Z" fill="white"/>
<path d="M149.492 70.1834V67.0024H144.169V65.1454L149.047 57.7439H151.34V65.1543H152.477V67.0024H151.34V70.1834H149.492ZM146.32 65.1454L149.492 65.1543L149.474 60.294L146.32 65.1454Z" fill="white"/>
<path d="M149.492 70.1834V67.0024H144.169V65.1454L149.047 57.7439H151.34V65.1543H152.477V67.0024H151.34V70.1834H149.492ZM146.32 65.1454L149.492 65.1543L149.474 60.294L146.32 65.1454Z" fill="white"/>
<path d="M140.518 70.4112C140.246 70.4112 140.015 70.3164 139.825 70.1269C139.642 69.9373 139.55 69.7063 139.55 69.4338C139.55 69.1673 139.642 68.9392 139.825 68.7497C140.015 68.5601 140.246 68.4653 140.518 68.4653C140.791 68.4653 141.022 68.5601 141.211 68.7497C141.401 68.9392 141.496 69.1673 141.496 69.4338C141.496 69.7063 141.401 69.9373 141.211 70.1269C141.022 70.3164 140.791 70.4112 140.518 70.4112Z" fill="white"/>
<path d="M140.518 70.4112C140.246 70.4112 140.015 70.3164 139.825 70.1269C139.642 69.9373 139.55 69.7063 139.55 69.4338C139.55 69.1673 139.642 68.9392 139.825 68.7497C140.015 68.5601 140.246 68.4653 140.518 68.4653C140.791 68.4653 141.022 68.5601 141.211 68.7497C141.401 68.9392 141.496 69.1673 141.496 69.4338C141.496 69.7063 141.401 69.9373 141.211 70.1269C141.022 70.3164 140.791 70.4112 140.518 70.4112Z" fill="white"/>
<path d="M132.699 70.4144C131.912 70.4144 131.198 70.2249 130.558 69.8457C129.924 69.4607 129.421 68.9513 129.047 68.3175C128.68 67.6777 128.497 66.9787 128.497 66.2205H130.345C130.345 66.6529 130.451 67.0469 130.665 67.4023C130.878 67.7577 131.162 68.042 131.518 68.2553C131.873 68.4626 132.267 68.5663 132.699 68.5663C133.126 68.5663 133.517 68.4626 133.872 68.2553C134.228 68.042 134.512 67.7577 134.725 67.4023C134.938 67.0469 135.045 66.6529 135.045 66.2205C135.045 65.7881 134.947 65.3942 134.752 65.0388C134.556 64.6774 134.263 64.3901 133.872 64.1769C133.481 63.9577 132.984 63.8481 132.379 63.8481H129.243L130.505 57.7439H136.52V59.5921H132.006L131.518 62L132.593 62.0178C133.44 62.0355 134.183 62.231 134.823 62.6042C135.469 62.9714 135.975 63.469 136.342 64.0969C136.71 64.7189 136.893 65.4268 136.893 66.2205C136.893 66.7951 136.784 67.3371 136.564 67.8465C136.345 68.35 136.043 68.7943 135.658 69.1793C135.279 69.5644 134.835 69.8665 134.325 70.0856C133.822 70.3048 133.28 70.4144 132.699 70.4144Z" fill="white"/>
<path d="M132.699 70.4144C131.912 70.4144 131.198 70.2249 130.558 69.8457C129.924 69.4607 129.421 68.9513 129.047 68.3175C128.68 67.6777 128.497 66.9787 128.497 66.2205H130.345C130.345 66.6529 130.451 67.0469 130.665 67.4023C130.878 67.7577 131.162 68.042 131.518 68.2553C131.873 68.4626 132.267 68.5663 132.699 68.5663C133.126 68.5663 133.517 68.4626 133.872 68.2553C134.228 68.042 134.512 67.7577 134.725 67.4023C134.938 67.0469 135.045 66.6529 135.045 66.2205C135.045 65.7881 134.947 65.3942 134.752 65.0388C134.556 64.6774 134.263 64.3901 133.872 64.1769C133.481 63.9577 132.984 63.8481 132.379 63.8481H129.243L130.505 57.7439H136.52V59.5921H132.006L131.518 62L132.593 62.0178C133.44 62.0355 134.183 62.231 134.823 62.6042C135.469 62.9714 135.975 63.469 136.342 64.0969C136.71 64.7189 136.893 65.4268 136.893 66.2205C136.893 66.7951 136.784 67.3371 136.564 67.8465C136.345 68.35 136.043 68.7943 135.658 69.1793C135.279 69.5644 134.835 69.8665 134.325 70.0856C133.822 70.3048 133.28 70.4144 132.699 70.4144Z" fill="white"/>
<path d="M115.048 70.1834L119.606 63.9281L115.101 57.7439H117.385L120.743 62.3643L124.111 57.7439H126.394L121.898 63.9281L126.448 70.1834H124.155L120.743 65.5097L117.349 70.1834H115.048Z" fill="white"/>
<path d="M115.048 70.1834L119.606 63.9281L115.101 57.7439H117.385L120.743 62.3643L124.111 57.7439H126.394L121.898 63.9281L126.448 70.1834H124.155L120.743 65.5097L117.349 70.1834H115.048Z" fill="white"/>
<path d="M101.07 57.7439H103.23L107.752 70.1834H105.797L104.936 67.8199H99.3645L98.5115 70.1834H96.5479L101.07 57.7439ZM100.049 65.9717H104.251L102.146 60.1963L100.049 65.9717Z" fill="white"/>
<path d="M101.07 57.7439H103.23L107.752 70.1834H105.797L104.936 67.8199H99.3645L98.5115 70.1834H96.5479L101.07 57.7439ZM100.049 65.9717H104.251L102.146 60.1963L100.049 65.9717Z" fill="white"/>
<path d="M80.5713 70.1834L82.9792 57.7439H84.472L87.6618 66.1228L90.8339 57.7439H92.3266L94.7434 70.1834H92.8597L91.2515 61.8578L88.2749 69.7125H87.0309L84.0632 61.8578L82.455 70.1834H80.5713Z" fill="white"/>
<path d="M80.5713 70.1834L82.9792 57.7439H84.472L87.6618 66.1228L90.8339 57.7439H92.3266L94.7434 70.1834H92.8597L91.2515 61.8578L88.2749 69.7125H87.0309L84.0632 61.8578L82.455 70.1834H80.5713Z" fill="white"/>
<path d="M71.6475 70.1834V57.7439H78.9779V59.592H73.4956V62.5953H78.1249V64.4435H73.4956V70.1834H71.6475Z" fill="white"/>
<path d="M71.6475 70.1834V57.7439H78.9779V59.592H73.4956V62.5953H78.1249V64.4435H73.4956V70.1834H71.6475Z" fill="white"/>
<path d="M66.519 70.1834V57.7439H68.3672V70.1834H66.519Z" fill="white"/>
<path d="M66.519 70.1834V57.7439H68.3672V70.1834H66.519Z" fill="white"/>
<path d="M55.3774 70.1834V57.7439H59.7935C60.4332 57.7439 61.0108 57.8742 61.5261 58.1349C62.0474 58.3955 62.4591 58.7716 62.7612 59.2633C63.0692 59.749 63.2232 60.3325 63.2232 61.0137C63.2232 61.3454 63.1699 61.6712 63.0633 61.9911C62.9566 62.311 62.8056 62.5923 62.6101 62.8352C62.4146 63.0781 62.1777 63.2499 61.8993 63.3506C62.2784 63.4453 62.5923 63.6171 62.8411 63.8659C63.0958 64.1088 63.2972 64.3931 63.4453 64.7189C63.5934 65.0447 63.6971 65.3823 63.7563 65.7318C63.8215 66.0813 63.8541 66.413 63.8541 66.727C63.8541 67.3904 63.6941 67.9828 63.3743 68.5041C63.0544 69.0253 62.6249 69.437 62.0859 69.7391C61.5528 70.0353 60.9634 70.1834 60.3177 70.1834H55.3774ZM57.2256 68.584H60.14C60.5191 68.584 60.8627 68.4892 61.1707 68.2997C61.4846 68.1101 61.7334 67.8495 61.9171 67.5178C62.1007 67.1801 62.1925 66.801 62.1925 66.3805C62.1925 66.0132 62.1007 65.6667 61.9171 65.3409C61.7334 65.0092 61.4846 64.7426 61.1707 64.5412C60.8627 64.3398 60.5191 64.2391 60.14 64.2391H57.2256V68.584ZM57.2256 62.6664H59.598C60.0837 62.6664 60.5013 62.5183 60.8508 62.2221C61.2003 61.9259 61.375 61.5202 61.375 61.0048C61.375 60.4539 61.2003 60.0422 60.8508 59.7698C60.5013 59.4913 60.0837 59.3521 59.598 59.3521H57.2256V62.6664Z" fill="white"/>
<path d="M55.3774 70.1834V57.7439H59.7935C60.4332 57.7439 61.0108 57.8742 61.5261 58.1349C62.0474 58.3955 62.4591 58.7716 62.7612 59.2633C63.0692 59.749 63.2232 60.3325 63.2232 61.0137C63.2232 61.3454 63.1699 61.6712 63.0633 61.9911C62.9566 62.311 62.8056 62.5923 62.6101 62.8352C62.4146 63.0781 62.1777 63.2499 61.8993 63.3506C62.2784 63.4453 62.5923 63.6171 62.8411 63.8659C63.0958 64.1088 63.2972 64.3931 63.4453 64.7189C63.5934 65.0447 63.6971 65.3823 63.7563 65.7318C63.8215 66.0813 63.8541 66.413 63.8541 66.727C63.8541 67.3904 63.6941 67.9828 63.3743 68.5041C63.0544 69.0253 62.6249 69.437 62.0859 69.7391C61.5528 70.0353 60.9634 70.1834 60.3177 70.1834H55.3774ZM57.2256 68.584H60.14C60.5191 68.584 60.8627 68.4892 61.1707 68.2997C61.4846 68.1101 61.7334 67.8495 61.9171 67.5178C62.1007 67.1801 62.1925 66.801 62.1925 66.3805C62.1925 66.0132 62.1007 65.6667 61.9171 65.3409C61.7334 65.0092 61.4846 64.7426 61.1707 64.5412C60.8627 64.3398 60.5191 64.2391 60.14 64.2391H57.2256V68.584ZM57.2256 62.6664H59.598C60.0837 62.6664 60.5013 62.5183 60.8508 62.2221C61.2003 61.9259 61.375 61.5202 61.375 61.0048C61.375 60.4539 61.2003 60.0422 60.8508 59.7698C60.5013 59.4913 60.0837 59.3521 59.598 59.3521H57.2256V62.6664Z" fill="white"/>
<path d="M52.7084 57.7439L49.1099 71.1785H47.2617L50.8603 57.7439H52.7084Z" fill="white"/>
<path d="M52.7084 57.7439L49.1099 71.1785H47.2617L50.8603 57.7439H52.7084Z" fill="white"/>
<path d="M42.4761 70.1834V57.7439H44.3242V70.1834H42.4761Z" fill="white"/>
<path d="M42.4761 70.1834V57.7439H44.3242V70.1834H42.4761Z" fill="white"/>
<path d="M34.6901 70.4141C34.0089 70.4141 33.3543 70.3074 32.7264 70.0942C32.0985 69.8809 31.5506 69.5759 31.0827 69.179C30.6147 68.7762 30.28 68.2993 30.0786 67.7485L31.8113 67.0998C31.912 67.3842 32.1045 67.6389 32.3888 67.864C32.6791 68.0831 33.0226 68.2549 33.4195 68.3793C33.8223 68.5037 34.2458 68.5659 34.6901 68.5659C35.164 68.5659 35.6083 68.4889 36.0229 68.3349C36.4435 68.1809 36.7811 67.9676 37.0358 67.6951C37.2965 67.4227 37.4268 67.1028 37.4268 66.7355C37.4268 66.3564 37.2906 66.0454 37.0181 65.8026C36.7515 65.5597 36.4079 65.3672 35.9874 65.225C35.5727 65.0828 35.1403 64.9762 34.6901 64.9051C33.8193 64.763 33.0374 64.5557 32.3444 64.2832C31.6572 64.0107 31.1123 63.6286 30.7095 63.137C30.3126 62.6453 30.1142 62.0056 30.1142 61.2177C30.1142 60.4773 30.3244 59.8316 30.745 59.2807C31.1715 58.7298 31.7313 58.3033 32.4243 58.0012C33.1233 57.6932 33.8786 57.5392 34.6901 57.5392C35.3595 57.5392 36.0051 57.6458 36.6271 57.8591C37.255 58.0664 37.8059 58.3714 38.2798 58.7742C38.7596 59.1711 39.1032 59.6539 39.3105 60.2226L37.5601 60.8534C37.4594 60.5632 37.2669 60.3114 36.9825 60.0982C36.6982 59.879 36.3546 59.7072 35.9518 59.5828C35.555 59.4584 35.1344 59.3962 34.6901 59.3962C34.2162 59.3903 33.772 59.4673 33.3573 59.6272C32.9486 59.7813 32.6139 59.9945 32.3533 60.267C32.0926 60.5395 31.9623 60.8564 31.9623 61.2177C31.9623 61.662 32.0837 61.9996 32.3266 62.2306C32.5695 62.4617 32.8953 62.6335 33.304 62.746C33.7186 62.8526 34.1807 62.9504 34.6901 63.0392C35.5076 63.1695 36.2628 63.3857 36.9559 63.6878C37.6549 63.9899 38.2146 64.3928 38.6352 64.8963C39.0617 65.3938 39.275 66.0069 39.275 66.7355C39.275 67.47 39.0617 68.1157 38.6352 68.6725C38.2146 69.2234 37.6549 69.6529 36.9559 69.9609C36.2628 70.263 35.5076 70.4141 34.6901 70.4141Z" fill="white"/>
<path d="M34.6901 70.4141C34.0089 70.4141 33.3543 70.3074 32.7264 70.0942C32.0985 69.8809 31.5506 69.5759 31.0827 69.179C30.6147 68.7762 30.28 68.2993 30.0786 67.7485L31.8113 67.0998C31.912 67.3842 32.1045 67.6389 32.3888 67.864C32.6791 68.0831 33.0226 68.2549 33.4195 68.3793C33.8223 68.5037 34.2458 68.5659 34.6901 68.5659C35.164 68.5659 35.6083 68.4889 36.0229 68.3349C36.4435 68.1809 36.7811 67.9676 37.0358 67.6951C37.2965 67.4227 37.4268 67.1028 37.4268 66.7355C37.4268 66.3564 37.2906 66.0454 37.0181 65.8026C36.7515 65.5597 36.4079 65.3672 35.9874 65.225C35.5727 65.0828 35.1403 64.9762 34.6901 64.9051C33.8193 64.763 33.0374 64.5557 32.3444 64.2832C31.6572 64.0107 31.1123 63.6286 30.7095 63.137C30.3126 62.6453 30.1142 62.0056 30.1142 61.2177C30.1142 60.4773 30.3244 59.8316 30.745 59.2807C31.1715 58.7298 31.7313 58.3033 32.4243 58.0012C33.1233 57.6932 33.8786 57.5392 34.6901 57.5392C35.3595 57.5392 36.0051 57.6458 36.6271 57.8591C37.255 58.0664 37.8059 58.3714 38.2798 58.7742C38.7596 59.1711 39.1032 59.6539 39.3105 60.2226L37.5601 60.8534C37.4594 60.5632 37.2669 60.3114 36.9825 60.0982C36.6982 59.879 36.3546 59.7072 35.9518 59.5828C35.555 59.4584 35.1344 59.3962 34.6901 59.3962C34.2162 59.3903 33.772 59.4673 33.3573 59.6272C32.9486 59.7813 32.6139 59.9945 32.3533 60.267C32.0926 60.5395 31.9623 60.8564 31.9623 61.2177C31.9623 61.662 32.0837 61.9996 32.3266 62.2306C32.5695 62.4617 32.8953 62.6335 33.304 62.746C33.7186 62.8526 34.1807 62.9504 34.6901 63.0392C35.5076 63.1695 36.2628 63.3857 36.9559 63.6878C37.6549 63.9899 38.2146 64.3928 38.6352 64.8963C39.0617 65.3938 39.275 66.0069 39.275 66.7355C39.275 67.47 39.0617 68.1157 38.6352 68.6725C38.2146 69.2234 37.6549 69.6529 36.9559 69.9609C36.2628 70.263 35.5076 70.4141 34.6901 70.4141Z" fill="white"/>
<path d="M17.6812 70.1834V57.7439H19.6804L25.3936 66.8425V57.7439H27.2418V70.1834H25.2426L19.5293 61.0848V70.1834H17.6812Z" fill="white"/>
<path d="M17.6812 70.1834V57.7439H19.6804L25.3936 66.8425V57.7439H27.2418V70.1834H25.2426L19.5293 61.0848V70.1834H17.6812Z" fill="white"/>
<path d="M8.52264 57.7439H10.6818L15.2044 70.1834H13.2496L12.3878 67.8199H6.81666L5.96366 70.1834H4L8.52264 57.7439ZM7.50083 65.9717H11.7036L9.59777 60.1963L7.50083 65.9717Z" fill="white"/>
<path d="M8.52264 57.7439H10.6818L15.2044 70.1834H13.2496L12.3878 67.8199H6.81666L5.96366 70.1834H4L8.52264 57.7439ZM7.50083 65.9717H11.7036L9.59777 60.1963L7.50083 65.9717Z" fill="white"/>
<path d="M151.138 104.405V87.8779H156.615C157.757 87.8779 158.823 88.0944 159.815 88.5272C160.814 88.9522 161.692 89.5464 162.447 90.3098C163.211 91.0654 163.805 91.9429 164.23 92.9424C164.663 93.934 164.879 95.0005 164.879 96.1416C164.879 97.2828 164.663 98.3532 164.23 99.3527C163.805 100.344 163.211 101.222 162.447 101.985C161.692 102.741 160.814 103.335 159.815 103.768C158.823 104.193 157.757 104.405 156.615 104.405H151.138ZM154.396 101.147H156.615C157.292 101.147 157.93 101.017 158.528 100.758C159.134 100.498 159.669 100.14 160.133 99.6832C160.598 99.2268 160.96 98.6955 161.219 98.0895C161.487 97.4835 161.621 96.8342 161.621 96.1416C161.621 95.4491 161.487 94.8037 161.219 94.2056C160.96 93.5996 160.598 93.0683 160.133 92.6119C159.677 92.1475 159.146 91.7855 158.54 91.5258C157.941 91.2661 157.3 91.1362 156.615 91.1362H154.396V101.147Z" fill="white"/>
<path d="M151.138 104.405V87.8779H156.615C157.757 87.8779 158.823 88.0944 159.815 88.5272C160.814 88.9522 161.692 89.5464 162.447 90.3098C163.211 91.0654 163.805 91.9429 164.23 92.9424C164.663 93.934 164.879 95.0005 164.879 96.1416C164.879 97.2828 164.663 98.3532 164.23 99.3527C163.805 100.344 163.211 101.222 162.447 101.985C161.692 102.741 160.814 103.335 159.815 103.768C158.823 104.193 157.757 104.405 156.615 104.405H151.138ZM154.396 101.147H156.615C157.292 101.147 157.93 101.017 158.528 100.758C159.134 100.498 159.669 100.14 160.133 99.6832C160.598 99.2268 160.96 98.6955 161.219 98.0895C161.487 97.4835 161.621 96.8342 161.621 96.1416C161.621 95.4491 161.487 94.8037 161.219 94.2056C160.96 93.5996 160.598 93.0683 160.133 92.6119C159.677 92.1475 159.146 91.7855 158.54 91.5258C157.941 91.2661 157.3 91.1362 156.615 91.1362H154.396V101.147Z" fill="white"/>
<path d="M136.893 104.405V87.8779H147.352V91.1362H140.151V93.9222H145.77V97.1805H140.151V101.147H147.352V104.405H136.893Z" fill="white"/>
<path d="M136.893 104.405V87.8779H147.352V91.1362H140.151V93.9222H145.77V97.1805H140.151V101.147H147.352V104.405H136.893Z" fill="white"/>
<path d="M129.264 104.405V87.8779H132.522V104.405H129.264Z" fill="white"/>
<path d="M129.264 104.405V87.8779H132.522V104.405H129.264Z" fill="white"/>
<path d="M116.241 104.405V87.8779H126.039V91.1362H119.499V93.9222H124.906V97.1805H119.499V104.405H116.241Z" fill="white"/>
<path d="M116.241 104.405V87.8779H126.039V91.1362H119.499V93.9222H124.906V97.1805H119.499V104.405H116.241Z" fill="white"/>
<path d="M108.612 104.405V87.8779H111.87V104.405H108.612Z" fill="white"/>
<path d="M108.612 104.405V87.8779H111.87V104.405H108.612Z" fill="white"/>
<path d="M104.725 87.8779V91.1362H99.8608V104.405H96.6025V91.1362H91.7388V87.8779H104.725Z" fill="white"/>
<path d="M104.725 87.8779V91.1362H99.8608V104.405H96.6025V91.1362H91.7388V87.8779H104.725Z" fill="white"/>
<path d="M77.0176 104.405V87.8779H83.5813C84.4785 87.8779 85.2892 88.1062 86.0132 88.5626C86.7451 89.0112 87.3236 89.6172 87.7486 90.3807C88.1815 91.1362 88.3979 91.9744 88.3979 92.8952C88.3979 93.6192 88.272 94.2921 88.0201 94.9139C87.7683 95.5278 87.4141 96.0669 86.9576 96.5312C86.5012 96.9956 85.9699 97.3576 85.3639 97.6173L89.2951 104.405H85.541L81.7751 97.9124H80.2758V104.405H77.0176ZM80.2758 94.6542H83.1918C83.5459 94.6542 83.8686 94.5676 84.1598 94.3945C84.4589 94.2134 84.695 93.9734 84.8681 93.6743C85.0491 93.3674 85.1396 93.029 85.1396 92.6591C85.1396 92.297 85.0491 91.9665 84.8681 91.6674C84.695 91.3605 84.4589 91.1165 84.1598 90.9355C83.8686 90.7545 83.5459 90.664 83.1918 90.664H80.2758V94.6542Z" fill="white"/>
<path d="M77.0176 104.405V87.8779H83.5813C84.4785 87.8779 85.2892 88.1062 86.0132 88.5626C86.7451 89.0112 87.3236 89.6172 87.7486 90.3807C88.1815 91.1362 88.3979 91.9744 88.3979 92.8952C88.3979 93.6192 88.272 94.2921 88.0201 94.9139C87.7683 95.5278 87.4141 96.0669 86.9576 96.5312C86.5012 96.9956 85.9699 97.3576 85.3639 97.6173L89.2951 104.405H85.541L81.7751 97.9124H80.2758V104.405H77.0176ZM80.2758 94.6542H83.1918C83.5459 94.6542 83.8686 94.5676 84.1598 94.3945C84.4589 94.2134 84.695 93.9734 84.8681 93.6743C85.0491 93.3674 85.1396 93.029 85.1396 92.6591C85.1396 92.297 85.0491 91.9665 84.8681 91.6674C84.695 91.3605 84.4589 91.1165 84.1598 90.9355C83.8686 90.7545 83.5459 90.664 83.1918 90.664H80.2758V94.6542Z" fill="white"/>
<path d="M62.7607 104.405V87.8779H73.2202V91.1362H66.019V93.9222H71.6383V97.1805H66.019V101.147H73.2202V104.405H62.7607Z" fill="white"/>
<path d="M62.7607 104.405V87.8779H73.2202V91.1362H66.019V93.9222H71.6383V97.1805H66.019V101.147H73.2202V104.405H62.7607Z" fill="white"/>
<path d="M52.9033 104.709C51.7857 104.709 50.7351 104.489 49.7513 104.048C48.7675 103.6 47.9018 102.982 47.1541 102.195C46.4143 101.408 45.8319 100.499 45.4069 99.4679C44.9898 98.429 44.7812 97.3193 44.7812 96.1388C44.7812 94.9504 44.9898 93.8407 45.4069 92.8097C45.8319 91.7708 46.4143 90.8618 47.1541 90.0826C47.9018 89.2956 48.7675 88.6817 49.7513 88.241C50.7351 87.7924 51.7857 87.5681 52.9033 87.5681C54.2412 87.5681 55.4729 87.879 56.5983 88.5007C57.7238 89.1146 58.6564 89.937 59.3962 90.968L56.4921 92.5381C56.0514 92.0187 55.5201 91.6055 54.8984 91.2986C54.2766 90.9838 53.6116 90.8264 52.9033 90.8264C52.2343 90.8264 51.6047 90.9641 51.0144 91.2396C50.4242 91.515 49.9047 91.8967 49.4561 92.3847C49.0154 92.8726 48.6691 93.4353 48.4173 94.0728C48.1654 94.7103 48.0395 95.399 48.0395 96.1388C48.0395 96.8707 48.1654 97.5593 48.4173 98.2047C48.6691 98.8422 49.0154 99.4049 49.4561 99.8928C49.9047 100.373 50.4242 100.755 51.0144 101.038C51.6047 101.313 52.2343 101.451 52.9033 101.451C53.6195 101.451 54.2845 101.294 54.8984 100.979C55.5201 100.664 56.0514 100.247 56.4921 99.7276L59.3962 101.309C58.6564 102.333 57.7238 103.155 56.5983 103.777C55.4729 104.399 54.2412 104.709 52.9033 104.709Z" fill="white"/>
<path d="M52.9033 104.709C51.7857 104.709 50.7351 104.489 49.7513 104.048C48.7675 103.6 47.9018 102.982 47.1541 102.195C46.4143 101.408 45.8319 100.499 45.4069 99.4679C44.9898 98.429 44.7812 97.3193 44.7812 96.1388C44.7812 94.9504 44.9898 93.8407 45.4069 92.8097C45.8319 91.7708 46.4143 90.8618 47.1541 90.0826C47.9018 89.2956 48.7675 88.6817 49.7513 88.241C50.7351 87.7924 51.7857 87.5681 52.9033 87.5681C54.2412 87.5681 55.4729 87.879 56.5983 88.5007C57.7238 89.1146 58.6564 89.937 59.3962 90.968L56.4921 92.5381C56.0514 92.0187 55.5201 91.6055 54.8984 91.2986C54.2766 90.9838 53.6116 90.8264 52.9033 90.8264C52.2343 90.8264 51.6047 90.9641 51.0144 91.2396C50.4242 91.515 49.9047 91.8967 49.4561 92.3847C49.0154 92.8726 48.6691 93.4353 48.4173 94.0728C48.1654 94.7103 48.0395 95.399 48.0395 96.1388C48.0395 96.8707 48.1654 97.5593 48.4173 98.2047C48.6691 98.8422 49.0154 99.4049 49.4561 99.8928C49.9047 100.373 50.4242 100.755 51.0144 101.038C51.6047 101.313 52.2343 101.451 52.9033 101.451C53.6195 101.451 54.2845 101.294 54.8984 100.979C55.5201 100.664 56.0514 100.247 56.4921 99.7276L59.3962 101.309C58.6564 102.333 57.7238 103.155 56.5983 103.777C55.4729 104.399 54.2412 104.709 52.9033 104.709Z" fill="white"/>
<path d="M175.662 26.7625L178.512 13.9545H179.068C179.363 15.7234 179.625 17.5578 180.084 19.3594L181.918 26.7625M187.258 0L169.995 0L157.613 34.788L151.749 0L135.862 0L131.014 16.4768C130.49 18.2457 130.228 20.2111 129.933 22.0455H129.54L123.611 0L107.56 0L100.615 41.9618H115.716L117.551 24.0437C117.714 22.3731 117.845 20.637 117.944 18.9663H118.468C118.566 20.7352 118.992 22.4058 119.451 24.2075L125.019 41.9618H134.126L140.317 23.1593C140.775 21.8162 141.07 20.3749 141.332 18.9991H141.627L143.724 41.9618H171.567L172.812 36.7207H184.604L186.013 41.9618H202.588L187.258 0Z" fill="white"/>
<path d="M175.662 26.7625L178.512 13.9545H179.068C179.363 15.7234 179.625 17.5578 180.084 19.3594L181.918 26.7625M187.258 0L169.995 0L157.613 34.788L151.749 0L135.862 0L131.014 16.4768C130.49 18.2457 130.228 20.2111 129.933 22.0455H129.54L123.611 0L107.56 0L100.615 41.9618H115.716L117.551 24.0437C117.714 22.3731 117.845 20.637 117.944 18.9663H118.468C118.566 20.7352 118.992 22.4058 119.451 24.2075L125.019 41.9618H134.126L140.317 23.1593C140.775 21.8162 141.07 20.3749 141.332 18.9991H141.627L143.724 41.9618H171.567L172.812 36.7207H184.604L186.013 41.9618H202.588L187.258 0Z" fill="white"/>
<path d="M70.979 41.9618H86.7024V27.2539H98.1346V16.3785H86.7024V12.0219H99.7397V0L70.979 0" fill="white"/>
<path d="M70.979 41.9618H86.7024V27.2539H98.1346V16.3785H86.7024V12.0219H99.7397V0L70.979 0" fill="white"/>
<path d="M63.7511 0L48.1587 0V41.9618H63.7511V0Z" fill="white"/>
<path d="M63.7511 0L48.1587 0V41.9618H63.7511V0Z" fill="white"/>
<path d="M22.2401 31.9275H20.4713V24.983H22.0108C24.5004 24.983 28.4967 24.9175 28.4967 28.4225C28.4967 31.8947 24.7952 31.9275 22.2401 31.9275ZM20.4713 10.1113H21.5522C23.8125 10.1113 26.7279 9.88198 26.7279 12.9939C26.7279 15.8765 24.1728 16.1058 21.8798 16.1058H20.4713V10.1113ZM35.343 20.4298V20.1022C39.11 18.9229 40.9772 15.3197 40.9772 11.6509C40.9772 1.95476 32.4931 0.0220947 24.1728 0.0220947L6.02539 0.0220947L6.02539 41.9839H27.252C34.7534 41.9839 42.9754 39.0358 42.9754 30.4207C42.9754 25.3761 39.9945 22.0348 35.343 20.4298Z" fill="white"/>
<path d="M22.2401 31.9275H20.4713V24.983H22.0108C24.5004 24.983 28.4967 24.9175 28.4967 28.4225C28.4967 31.8947 24.7952 31.9275 22.2401 31.9275ZM20.4713 10.1113H21.5522C23.8125 10.1113 26.7279 9.88198 26.7279 12.9939C26.7279 15.8765 24.1728 16.1058 21.8798 16.1058H20.4713V10.1113ZM35.343 20.4298V20.1022C39.11 18.9229 40.9772 15.3197 40.9772 11.6509C40.9772 1.95476 32.4931 0.0220947 24.1728 0.0220947L6.02539 0.0220947L6.02539 41.9839H27.252C34.7534 41.9839 42.9754 39.0358 42.9754 30.4207C42.9754 25.3761 39.9945 22.0348 35.343 20.4298Z" fill="white"/>
</g>
<defs>
<filter id="filter0_d_15702_31442" x="0" y="0" width="209.681" height="112.709" filterUnits="userSpaceOnUse" color-interpolation-filters="sRGB">
<feFlood flood-opacity="0" result="BackgroundImageFix"/>
<feColorMatrix in="SourceAlpha" type="matrix" values="0 0 0 0 0 0 0 0 0 0 0 0 0 0 0 0 0 0 127 0" result="hardAlpha"/>
<feOffset dy="4"/>
<feGaussianBlur stdDeviation="2"/>
<feComposite in2="hardAlpha" operator="out"/>
<feColorMatrix type="matrix" values="0 0 0 0 0 0 0 0 0 0 0 0 0 0 0 0 0 0 0.25 0"/>
<feBlend mode="normal" in2="BackgroundImageFix" result="effect1_dropShadow_15702_31442"/>
<feBlend mode="normal" in="SourceGraphic" in2="effect1_dropShadow_15702_31442" result="shape"/>
</filter>
</defs>
</svg>
