<svg width="287" height="287" viewBox="0 0 287 287" fill="none" xmlns="http://www.w3.org/2000/svg">
<g filter="url(#filter0_d_15700_31405)">
<path d="M143.5 271.892V279C143.052 279 142.605 278.996 142.158 278.991L142.224 271.886C142.649 271.89 143.074 271.892 143.5 271.892ZM144.841 278.991C144.395 278.996 143.948 279 143.5 279V271.892C143.926 271.892 144.351 271.89 144.776 271.886L144.841 278.991ZM137.153 271.742C137.994 271.782 138.837 271.814 139.682 271.838L139.581 275.389L139.582 275.39L139.482 278.94C138.592 278.915 137.704 278.882 136.818 278.84L137.153 271.742ZM150.163 278.447L150.18 278.84C149.295 278.882 148.407 278.915 147.517 278.94L147.317 271.838C148.162 271.814 149.006 271.782 149.847 271.742L150.163 278.447ZM132.084 271.407C132.925 271.478 133.769 271.542 134.615 271.598L134.144 278.689C133.254 278.63 132.366 278.562 131.48 278.486L132.084 271.407ZM155.52 278.486C154.633 278.562 153.745 278.63 152.854 278.689L152.385 271.598C153.231 271.542 154.075 271.478 154.916 271.407L155.52 278.486ZM127.038 270.879C127.877 270.983 128.719 271.079 129.564 271.167L128.825 278.235C127.936 278.142 127.049 278.041 126.164 277.931L127.038 270.879ZM160.835 277.931C159.951 278.041 159.063 278.142 158.174 278.235L157.435 271.167C158.28 271.079 159.123 270.983 159.962 270.879L160.835 277.931ZM122.02 270.159C122.853 270.295 123.689 270.423 124.527 270.543L123.518 277.577C122.634 277.45 121.754 277.316 120.876 277.173L122.02 270.159ZM165.551 273.667L166.123 277.173C165.245 277.316 164.365 277.45 163.482 277.577L162.977 274.062L162.473 270.543C163.311 270.423 164.147 270.295 164.979 270.159L165.551 273.667ZM117.035 269.248C117.86 269.415 118.688 269.575 119.519 269.727L118.24 276.716C117.365 276.556 116.492 276.388 115.622 276.212L117.035 269.248ZM171.377 276.212C170.507 276.388 169.635 276.556 168.759 276.716L167.481 269.727C168.312 269.575 169.14 269.415 169.965 269.248L171.377 276.212ZM112.082 268.143C112.902 268.343 113.725 268.534 114.551 268.719L113.003 275.653C112.133 275.459 111.265 275.26 110.401 275.049L112.082 268.143ZM176.598 275.049C175.734 275.26 174.866 275.459 173.996 275.653L172.449 268.719C173.275 268.534 174.098 268.343 174.918 268.143L176.598 275.049ZM107.179 266.849C107.991 267.081 108.807 267.304 109.626 267.52L108.719 270.956L108.72 270.957L107.813 274.391C106.95 274.163 106.09 273.929 105.233 273.685L107.179 266.849ZM181.766 273.685C180.91 273.929 180.049 274.163 179.186 274.391L178.28 270.957L177.374 267.52C178.193 267.304 179.009 267.081 179.821 266.849L181.766 273.685ZM102.331 265.367C103.134 265.63 103.94 265.885 104.75 266.133L102.673 272.928C101.819 272.667 100.969 272.399 100.122 272.123L102.331 265.367ZM186.877 272.123C186.03 272.399 185.18 272.667 184.327 272.928L182.25 266.133C183.06 265.885 183.866 265.63 184.669 265.367L186.877 272.123ZM97.5452 263.701C98.3362 263.993 99.1308 264.279 99.9288 264.557L97.5903 271.267C96.749 270.974 95.9113 270.673 95.0774 270.365L97.5452 263.701ZM191.922 270.365C191.088 270.673 190.25 270.974 189.409 271.267L187.071 264.557C187.869 264.279 188.664 263.993 189.455 263.701L191.922 270.365ZM92.824 261.849C93.6034 262.172 94.3869 262.488 95.1738 262.796L92.5776 269.413C91.7483 269.087 90.9235 268.753 90.102 268.412L92.824 261.849ZM196.897 268.412C196.076 268.753 195.251 269.087 194.422 269.413L191.826 262.796C192.613 262.488 193.397 262.172 194.176 261.849L196.897 268.412ZM88.1774 259.816C88.9446 260.169 89.7157 260.515 90.4907 260.854L87.642 267.367C86.8248 267.009 86.0127 266.642 85.2038 266.269L88.1774 259.816ZM201.795 266.269C200.987 266.641 200.175 267.009 199.358 267.367L196.509 260.854C197.284 260.515 198.055 260.169 198.823 259.816L201.795 266.269ZM83.6124 257.606C84.3661 257.989 85.1247 258.365 85.8867 258.734L82.7889 265.131C81.9856 264.742 81.1869 264.345 80.3923 263.941L83.6124 257.606ZM206.607 263.941C205.812 264.345 205.013 264.742 204.21 265.131L202.662 261.933L201.113 258.734C201.875 258.365 202.634 257.989 203.388 257.606L206.607 263.941ZM79.1367 255.222C79.8748 255.634 80.6176 256.038 81.3642 256.436L79.6929 259.572L79.6938 259.573L78.0235 262.707C77.2368 262.288 76.4539 261.863 75.6763 261.43L79.1367 255.222ZM211.323 261.43C210.545 261.863 209.762 262.288 208.976 262.707L207.306 259.573L205.636 256.436C206.382 256.038 207.125 255.634 207.863 255.222L211.323 261.43ZM74.7557 252.668C75.477 253.108 76.2034 253.54 76.9336 253.966L73.3543 260.104C72.5849 259.655 71.8192 259.202 71.0592 258.739L74.7557 252.668ZM215.94 258.739C215.18 259.202 214.414 259.655 213.645 260.104L210.066 253.966C210.797 253.54 211.523 253.108 212.244 252.668L215.94 258.739ZM70.4735 249.948C71.1779 250.415 71.8874 250.875 72.6012 251.329L68.7893 257.325C68.0373 256.848 67.2901 256.363 66.548 255.871L70.4735 249.948ZM220.451 255.871C219.709 256.363 218.962 256.848 218.21 257.325L214.399 251.329C215.113 250.875 215.822 250.415 216.526 249.948L220.451 255.871ZM66.299 247.066C66.9853 247.559 67.6768 248.046 68.3728 248.527L64.3336 254.375C63.6002 253.869 62.8728 253.354 62.1496 252.834L66.299 247.066ZM224.85 252.834C224.126 253.354 223.399 253.869 222.666 254.375L218.627 248.527C219.323 248.046 220.015 247.559 220.702 247.066L224.85 252.834ZM62.2372 244.025C62.9045 244.545 63.5764 245.058 64.2538 245.565L59.9951 251.256C59.2812 250.722 58.5741 250.179 57.8709 249.631L62.2372 244.025ZM229.128 249.631C228.425 250.179 227.718 250.722 227.004 251.256L222.746 245.565C223.424 245.058 224.096 244.545 224.763 244.025L229.128 249.631ZM58.2943 240.833C58.9411 241.377 59.593 241.916 60.2502 242.448L55.778 247.971C55.0855 247.41 54.3986 246.843 53.7172 246.269L58.2943 240.833ZM233.282 246.269C232.601 246.843 231.914 247.41 231.221 247.971L228.986 245.211L226.75 242.448C227.407 241.916 228.059 241.377 228.706 240.833L233.282 246.269ZM54.4756 237.492C55.1011 238.061 55.7325 238.624 56.3689 239.181L51.6893 244.528C51.0189 243.941 50.3527 243.35 49.6936 242.751L54.4756 237.492ZM237.306 242.751C236.646 243.35 235.98 243.941 235.31 244.528L230.632 239.18C231.268 238.623 231.899 238.061 232.524 237.492L237.306 242.751ZM50.7861 234.007C51.3897 234.6 51.9994 235.186 52.6143 235.767L47.7343 240.933C47.0868 240.321 46.4446 239.704 45.8089 239.08L50.7861 234.007ZM236.214 234.007L241.19 239.08C240.555 239.704 239.912 240.321 239.265 240.933L234.386 235.767C235.001 235.186 235.61 234.6 236.214 234.007ZM47.2328 230.386C47.8135 231.001 48.4002 231.61 48.9925 232.214L44.1637 236.951L43.919 237.19C43.2952 236.554 42.678 235.912 42.0664 235.265L47.2328 230.386ZM244.933 235.265C244.321 235.912 243.704 236.555 243.08 237.19L238.007 232.214C238.6 231.61 239.186 231.001 239.767 230.386L244.933 235.265ZM43.8201 226.632C44.3767 227.268 44.9393 227.899 45.5078 228.524L40.2486 233.306C39.6495 232.646 39.0581 231.98 38.4715 231.31L43.8201 226.632ZM248.528 231.31C247.941 231.98 247.35 232.646 246.751 233.306L241.492 228.524C242.061 227.899 242.624 227.267 243.181 226.631L248.528 231.31ZM40.5523 222.75C41.0844 223.407 41.6227 224.059 42.1671 224.706L39.4477 226.994L39.4486 226.995L37.1005 228.971L36.73 229.282C36.1564 228.601 35.5891 227.914 35.0284 227.221L40.5523 222.75ZM251.69 226.995L251.971 227.221C251.41 227.914 250.843 228.601 250.269 229.282L247.551 226.995L244.833 224.706C245.377 224.059 245.916 223.407 246.448 222.75L251.69 226.995ZM37.4346 218.746C37.9415 219.424 38.4553 220.096 38.9748 220.763L33.3676 225.128C32.8202 224.425 32.2775 223.718 31.7433 223.004L37.4346 218.746ZM255.256 223.004C254.722 223.718 254.179 224.425 253.631 225.128L250.83 222.947L248.025 220.763C248.545 220.096 249.058 219.424 249.565 218.746L255.256 223.004ZM34.4731 214.627C34.9538 215.323 35.4407 216.015 35.9343 216.702L30.1649 220.85C29.6449 220.126 29.1303 219.399 28.6239 218.666L34.4731 214.627ZM258.375 218.666C257.869 219.399 257.354 220.126 256.834 220.85L253.951 218.777L251.066 216.701C251.559 216.015 252.046 215.323 252.527 214.627L258.375 218.666ZM31.6713 210.399C32.1248 211.113 32.5851 211.822 33.0518 212.526L27.1279 216.451C26.6362 215.709 26.1515 214.962 25.6737 214.21L31.6713 210.399ZM261.325 214.21C260.848 214.962 260.363 215.709 259.871 216.451L253.948 212.526C254.415 211.822 254.875 211.113 255.329 210.399L261.325 214.21ZM29.0343 206.066C29.4599 206.797 29.8924 207.523 30.3315 208.244L24.2602 211.94C23.7975 211.18 23.3437 210.414 22.8953 209.645L29.0343 206.066ZM264.104 209.645C263.655 210.414 263.202 211.18 262.739 211.94L256.668 208.244C257.108 207.523 257.54 206.797 257.966 206.066L264.104 209.645ZM26.5639 201.636C26.9615 202.382 27.3664 203.125 27.7779 203.863L21.5694 207.323C21.1359 206.545 20.711 205.762 20.2921 204.976L26.5639 201.636ZM263.572 203.306L266.707 204.976C266.288 205.762 265.863 206.545 265.43 207.323L259.222 203.863C259.634 203.125 260.038 202.382 260.436 201.636L263.572 203.306ZM24.2662 197.113C24.6351 197.875 25.0113 198.634 25.3943 199.388L19.0582 202.607C18.6545 201.812 18.2575 201.013 17.8686 200.21L24.2662 197.113ZM269.131 200.21C268.742 201.013 268.345 201.812 267.941 202.607L261.606 199.388C261.989 198.634 262.365 197.875 262.734 197.113L269.131 200.21ZM22.1456 192.509C22.4846 193.284 22.8308 194.055 23.1842 194.823L19.9555 196.309L19.9563 196.31L16.7302 197.795C16.3577 196.987 15.9899 196.175 15.6325 195.358L22.1456 192.509ZM271.367 195.358C271.009 196.175 270.641 196.987 270.269 197.795L267.044 196.31L263.816 194.823C264.169 194.055 264.515 193.284 264.854 192.509L271.367 195.358ZM20.2036 187.826C20.5123 188.613 20.8279 189.397 21.1512 190.176L17.8677 191.537L17.8686 191.537L14.5869 192.897C14.2463 192.076 13.9118 191.251 13.5865 190.422L20.2036 187.826ZM273.413 190.422C273.087 191.251 272.753 192.076 272.412 192.897L269.131 191.537L265.849 190.176C266.172 189.397 266.488 188.613 266.796 187.826L273.413 190.422ZM18.443 183.071C18.721 183.869 19.0067 184.664 19.2995 185.455L12.6346 187.922C12.3259 187.088 12.0253 186.25 11.7322 185.409L18.443 183.071ZM275.267 185.409C274.974 186.25 274.673 187.088 274.365 187.922L271.033 186.689L267.701 185.455C267.993 184.664 268.279 183.869 268.557 183.071L275.267 185.409ZM16.8673 178.25C17.1147 179.06 17.3701 179.866 17.6326 180.669L10.8766 182.877C10.5999 182.03 10.3322 181.18 10.0714 180.327L16.8673 178.25ZM276.928 180.327C276.667 181.18 276.399 182.03 276.123 182.877L269.367 180.669C269.63 179.866 269.885 179.06 270.133 178.25L276.928 180.327ZM15.4798 173.374C15.6959 174.193 15.9192 175.009 16.1505 175.821L12.7318 176.793L12.7326 176.794L9.31386 177.766C9.0701 176.91 8.83612 176.049 8.60841 175.186L15.4798 173.374ZM278.391 175.186C278.163 176.049 277.929 176.91 277.685 177.766L274.267 176.794L270.849 175.821C271.081 175.009 271.304 174.193 271.52 173.374L278.391 175.186ZM14.2815 168.449C14.4656 169.275 14.6573 170.098 14.8568 170.918L7.94982 172.598C7.73956 171.734 7.53997 170.866 7.34589 169.996L14.2815 168.449ZM279.653 169.996C279.459 170.866 279.26 171.734 279.049 172.598L272.143 170.918C272.343 170.098 272.534 169.275 272.719 168.449L279.653 169.996ZM13.2732 163.481C13.4252 164.312 13.5848 165.14 13.7522 165.965L6.78708 167.377C6.6107 166.507 6.44307 165.635 6.28294 164.759L13.2732 163.481ZM280.716 164.759C280.556 165.635 280.388 166.507 280.212 167.377L273.248 165.965C273.415 165.14 273.575 164.312 273.727 163.481L280.716 164.759ZM12.4567 158.473C12.5769 159.311 12.7053 160.147 12.8411 160.979L9.33208 161.551L9.33295 161.552L5.82653 162.123C5.6834 161.245 5.54885 160.365 5.42218 159.482L12.4567 158.473ZM281.577 159.482C281.45 160.365 281.316 161.245 281.173 162.123L274.159 160.98C274.295 160.147 274.423 159.311 274.543 158.473L281.577 159.482ZM11.8328 153.435C11.9211 154.28 12.0168 155.123 12.1209 155.962L5.06815 156.835C4.95851 155.951 4.85745 155.063 4.76445 154.174L11.8328 153.435ZM282.235 154.174C282.142 155.063 282.041 155.951 281.931 156.835L278.406 156.4L274.879 155.962C274.983 155.123 275.079 154.281 275.167 153.436L282.235 154.174ZM11.4016 148.385C11.4576 149.231 11.5216 150.075 11.5933 150.916L4.51282 151.52C4.43719 150.633 4.36875 149.745 4.30977 148.854L11.4016 148.385ZM282.689 148.855C282.63 149.745 282.562 150.634 282.486 151.52L278.948 151.218L275.407 150.916C275.478 150.075 275.542 149.231 275.598 148.385L282.689 148.855ZM279.389 143.418L282.94 143.517C282.915 144.408 282.882 145.296 282.84 146.181L279.292 146.015L275.742 145.847C275.782 145.006 275.814 144.163 275.838 143.318L279.389 143.418ZM11.1621 143.317C11.186 144.162 11.2179 145.006 11.2575 145.847L4.15879 146.18C4.11704 145.295 4.08417 144.407 4.059 143.517L11.1621 143.317ZM4 139.5C4 139.052 4.0036 138.605 4.00781 138.158L7.56021 138.191L11.1144 138.224C11.1104 138.649 11.1083 139.074 11.1083 139.5C11.1083 139.926 11.1104 140.351 11.1144 140.776L7.55935 140.809L7.56021 140.809L4.00781 140.841C4.0036 140.395 4 139.948 4 139.5ZM282.991 140.841L279.44 140.809L275.886 140.776C275.89 140.351 275.892 139.926 275.892 139.5C275.892 139.074 275.89 138.649 275.886 138.224L282.991 138.158C282.996 138.605 283 139.052 283 139.5C283 139.948 282.996 140.395 282.991 140.841ZM282.84 132.819C282.882 133.704 282.915 134.592 282.94 135.482L275.838 135.683C275.814 134.838 275.782 133.994 275.742 133.153L282.84 132.819ZM7.70772 132.985L11.2575 133.153C11.2179 133.994 11.186 134.837 11.1621 135.682L7.60967 135.581L4.059 135.482C4.08418 134.592 4.11701 133.704 4.15879 132.818L7.70772 132.985ZM8.05221 127.782L11.5933 128.084C11.5216 128.925 11.4576 129.769 11.4016 130.615L4.30977 130.144C4.36875 129.254 4.4372 128.366 4.51282 127.48L8.05221 127.782ZM282.486 127.48C282.562 128.366 282.63 129.254 282.689 130.145L275.598 130.615C275.542 129.769 275.478 128.925 275.407 128.084L282.486 127.48ZM281.931 122.164C282.041 123.049 282.142 123.936 282.235 124.825L275.167 125.565C275.079 124.72 274.983 123.877 274.879 123.038L281.931 122.164ZM8.59366 122.6L12.1209 123.038C12.0168 123.877 11.9211 124.719 11.8328 125.564L4.76445 124.825C4.85746 123.936 4.95851 123.049 5.06815 122.164L8.59366 122.6ZM12.8411 118.02C12.7053 118.853 12.5769 119.689 12.4567 120.527L5.42218 119.518C5.54885 118.634 5.68339 117.754 5.82653 116.876L12.8411 118.02ZM281.173 116.876C281.316 117.754 281.45 118.634 281.577 119.518L278.062 120.023L278.061 120.022L274.543 120.527C274.423 119.689 274.295 118.853 274.159 118.021L281.173 116.876ZM13.7522 113.035C13.5848 113.86 13.4252 114.688 13.2732 115.519L6.28294 114.24C6.44307 113.365 6.61069 112.492 6.78708 111.622L13.7522 113.035ZM280.212 111.622C280.388 112.492 280.556 113.365 280.716 114.24L273.727 115.519C273.575 114.688 273.415 113.86 273.248 113.035L280.212 111.622ZM14.8568 108.082C14.6573 108.902 14.4656 109.725 14.2815 110.551L7.34589 109.003C7.53997 108.133 7.73955 107.265 7.94982 106.401L14.8568 108.082ZM279.049 106.401C279.26 107.265 279.459 108.133 279.653 109.003L272.719 110.551C272.534 109.725 272.343 108.902 272.143 108.082L279.049 106.401ZM12.7326 102.206L16.1505 103.179C15.9192 103.991 15.6959 104.807 15.4798 105.626L12.0428 104.719L8.60841 103.813C8.83613 102.95 9.07009 102.09 9.31386 101.233L12.7326 102.206ZM277.685 101.233C277.929 102.09 278.163 102.95 278.391 103.813L274.957 104.72L274.956 104.719L271.52 105.626C271.304 104.807 271.081 103.991 270.849 103.179L277.685 101.233ZM17.6326 98.3306C17.3701 99.1336 17.1147 99.9402 16.8673 100.75L10.0714 98.6725C10.3322 97.819 10.5999 96.9687 10.8766 96.1223L17.6326 98.3306ZM276.123 96.1223C276.399 96.9687 276.667 97.819 276.928 98.6725L270.133 100.75C269.885 99.9402 269.63 99.1336 269.367 98.3306L276.123 96.1223ZM15.9666 92.3113L19.2995 93.5452C19.0067 94.3362 18.721 95.1308 18.443 95.9288L11.7322 93.5903C12.0253 92.749 12.3259 91.9113 12.6346 91.0774L15.9666 92.3113ZM274.365 91.0774C274.673 91.9113 274.974 92.749 275.267 93.5903L268.557 95.9288C268.279 95.1308 267.993 94.3362 267.701 93.5452L274.365 91.0774ZM17.8686 87.4626L21.1512 88.824C20.8279 89.6034 20.5123 90.3869 20.2036 91.1738L13.5865 88.5776C13.9118 87.7483 14.2463 86.9235 14.5869 86.102L17.8686 87.4626ZM272.412 86.102C272.753 86.9235 273.087 87.7483 273.413 88.5776L266.796 91.1738C266.488 90.3869 266.172 89.6034 265.849 88.824L272.412 86.102ZM23.1842 84.1774C22.8308 84.9446 22.4846 85.7157 22.1456 86.4907L15.6334 83.642L15.6325 83.6412C15.9899 82.8242 16.3577 82.0125 16.7302 81.2038L23.1842 84.1774ZM270.269 81.2038C270.642 82.0128 271.009 82.8248 271.367 83.642L264.854 86.4907C264.515 85.7157 264.169 84.9446 263.816 84.1774L270.269 81.2038ZM25.3943 79.6124C25.0113 80.3661 24.6351 81.1247 24.2662 81.8867L17.8686 78.7889C18.2575 77.9856 18.6545 77.1869 19.0582 76.3923L25.3943 79.6124ZM267.941 76.3923C268.345 77.1869 268.742 77.9856 269.131 78.7889L262.734 81.8867C262.365 81.1247 261.989 80.3661 261.606 79.6124L267.941 76.3923ZM27.7779 75.1367C27.3664 75.8748 26.9615 76.6176 26.5639 77.3642L23.4272 75.6929L20.2921 74.0235C20.7111 73.2368 21.1359 72.4539 21.5694 71.6763L27.7779 75.1367ZM265.43 71.6763C265.863 72.4539 266.288 73.2368 266.707 74.0235L263.573 75.6938L263.572 75.6929L260.436 77.3642C260.038 76.6176 259.634 75.8748 259.222 75.1367L265.43 71.6763ZM30.3315 70.7557C29.8924 71.477 29.4599 72.2034 29.0343 72.9336L22.8953 69.3543C23.3437 68.5849 23.7975 67.8192 24.2602 67.0592L30.3315 70.7557ZM262.739 67.0592C263.202 67.8192 263.655 68.5849 264.104 69.3543L257.966 72.9336C257.54 72.2034 257.108 71.477 256.668 70.7557L262.739 67.0592ZM33.0518 66.4735C32.5851 67.1779 32.1248 67.8874 31.6713 68.6012L25.6737 64.7893C26.1515 64.0373 26.6362 63.2901 27.1279 62.548L33.0518 66.4735ZM259.871 62.548C260.363 63.2901 260.848 64.0373 261.325 64.7893L255.329 68.6012C254.875 67.8875 254.415 67.1779 253.948 66.4735L259.871 62.548ZM33.0492 60.2234L35.9343 62.299C35.4409 62.9853 34.9537 63.6768 34.4731 64.3728L28.6239 60.3336C29.1303 59.6002 29.6449 58.8728 30.1649 58.1496L33.0492 60.2234ZM256.834 58.1496C257.354 58.8728 257.869 59.6002 258.375 60.3336L252.527 64.3728C252.046 63.6766 251.559 62.9845 251.066 62.2981L256.834 58.1496ZM36.1703 56.0532L38.9748 58.2372C38.4553 58.9045 37.9415 59.5764 37.4346 60.2538L31.7433 55.9951C32.2775 55.2812 32.8202 54.5741 33.3676 53.8709L36.1703 56.0532ZM253.631 53.8709C254.179 54.5741 254.722 55.2812 255.256 55.9951L249.565 60.2538C249.058 59.5764 248.545 58.9045 248.025 58.2372L253.631 53.8709ZM39.4486 52.0053L42.1671 54.2943C41.6227 54.9411 41.0844 55.593 40.5523 56.2502L35.0284 51.778C35.5891 51.0855 36.1564 50.3986 36.73 49.7172L39.4486 52.0053ZM250.269 49.7172C250.843 50.3986 251.41 51.0855 251.971 51.778L249.211 54.0141L249.21 54.0132L246.448 56.2502C245.916 55.593 245.377 54.9411 244.833 54.2943L250.269 49.7172ZM40.2486 45.6936L45.5078 50.4756C44.9391 51.1011 44.376 51.7325 43.8192 52.3689L38.4715 47.6893C39.0553 47.0221 39.6437 46.3591 40.2399 45.7032L40.2486 45.6936ZM246.751 45.6936C247.35 46.3527 247.941 47.0189 248.528 47.6893L243.18 52.368C242.623 51.7318 242.061 51.1009 241.492 50.4756L246.751 45.6936ZM48.9925 46.7861C48.4002 47.3897 47.8135 47.9994 47.2328 48.6143L42.0664 43.7343C42.678 43.0868 43.2952 42.4446 43.919 41.8089L48.9925 46.7861ZM243.08 41.8089C243.704 42.4446 244.321 43.0868 244.933 43.7343L239.767 48.6143C239.186 47.9994 238.6 47.3897 238.007 46.7861L243.08 41.8089ZM52.6143 43.2328C51.9994 43.8135 51.3897 44.4002 50.7861 44.9925L45.8089 39.919C46.4446 39.2952 47.0868 38.678 47.7343 38.0664L52.6143 43.2328ZM239.265 38.0664C239.912 38.678 240.555 39.2952 241.19 39.919L236.214 44.9925C235.61 44.4002 235.001 43.8135 234.386 43.2328L239.265 38.0664ZM56.368 39.8201C55.7318 40.3767 55.1009 40.9393 54.4756 41.5078L49.6936 36.2486C50.3527 35.6495 51.0189 35.0581 51.6893 34.4715L56.368 39.8201ZM235.31 34.4715C235.98 35.0581 236.646 35.6495 237.306 36.2486L232.524 41.5078C231.899 40.9391 231.267 40.376 230.631 39.8192L235.31 34.4715ZM58.0141 33.7895L60.2502 36.5523C59.593 37.0844 58.9411 37.6227 58.2943 38.1671L53.7172 32.73C54.3986 32.1564 55.0855 31.5891 55.778 31.0284L58.0141 33.7895ZM231.221 31.0284C231.914 31.5891 232.601 32.1564 233.282 32.73L228.706 38.1671C228.059 37.6227 227.407 37.0844 226.75 36.5523L231.221 31.0284ZM64.2538 33.4346C63.5764 33.9415 62.9045 34.4553 62.2372 34.9748L57.8709 29.3676C58.5741 28.8202 59.2812 28.2775 59.9951 27.7433L64.2538 33.4346ZM227.004 27.7433C227.718 28.2775 228.425 28.8202 229.128 29.3676L226.947 32.1703L226.946 32.1695L224.763 34.9748C224.096 34.4553 223.424 33.9415 222.746 33.4346L227.004 27.7433ZM68.3728 30.4731C67.6766 30.9538 66.9845 31.4407 66.2981 31.9343L62.1496 26.1649C62.8728 25.6449 63.6002 25.1303 64.3336 24.6239L68.3728 30.4731ZM222.666 24.6239C223.399 25.1303 224.126 25.6449 224.85 26.1649L222.777 29.0492L222.776 29.0483L220.701 31.9343C220.015 31.4409 219.323 30.9537 218.627 30.4731L222.666 24.6239ZM72.6012 27.6713C71.8875 28.1248 71.1779 28.5851 70.4735 29.0518L66.548 23.1279C67.2901 22.6362 68.0373 22.1515 68.7893 21.6737L72.6012 27.6713ZM218.21 21.6737C218.962 22.1515 219.709 22.6362 220.451 23.1279L216.526 29.0518C215.822 28.5851 215.113 28.1248 214.399 27.6713L218.21 21.6737ZM76.9336 25.0343C76.2034 25.4599 75.477 25.8924 74.7557 26.3315L71.0592 20.2602C71.8192 19.7975 72.5849 19.3437 73.3543 18.8953L76.9336 25.0343ZM213.645 18.8953C214.414 19.3437 215.18 19.7975 215.94 20.2602L212.244 26.3315C211.523 25.8924 210.797 25.4599 210.066 25.0343L213.645 18.8953ZM79.6938 19.4272L81.3642 22.5639C80.6176 22.9615 79.8748 23.3664 79.1367 23.7779L75.6763 17.5694C76.4539 17.1359 77.2368 16.7111 78.0235 16.2921L79.6938 19.4272ZM208.976 16.2921C209.762 16.711 210.545 17.1359 211.323 17.5694L207.863 23.7779C207.125 23.3664 206.382 22.9615 205.636 22.5639L208.976 16.2921ZM85.8867 20.2662C85.1247 20.6351 84.3661 21.0113 83.6124 21.3943L80.3923 15.0582C81.1869 14.6545 81.9856 14.2575 82.7889 13.8686L85.8867 20.2662ZM204.21 13.8686C205.013 14.2575 205.812 14.6545 206.607 15.0582L203.388 21.3943C202.634 21.0113 201.875 20.6351 201.113 20.2662L204.21 13.8686ZM87.642 11.6334L90.4907 18.1456C89.7157 18.4846 88.9446 18.8308 88.1774 19.1842L85.2038 12.7302C86.0125 12.3577 86.8242 11.9899 87.6412 11.6325L87.642 11.6334ZM199.358 11.6325C200.175 11.9899 200.987 12.3577 201.795 12.7302L198.823 19.1842C198.055 18.8308 197.284 18.4846 196.509 18.1456L199.358 11.6325ZM95.1738 16.2036C94.3869 16.5123 93.6034 16.8279 92.824 17.1512L90.102 10.5869C90.9235 10.2463 91.7483 9.91177 92.5776 9.58646L95.1738 16.2036ZM194.422 9.58646C195.251 9.91177 196.076 10.2463 196.897 10.5869L194.176 17.1512C193.397 16.8279 192.613 16.5123 191.826 16.2036L194.422 9.58646ZM99.9288 14.443C99.1308 14.721 98.3362 15.0067 97.5452 15.2995L95.0774 8.63458C95.9113 8.32592 96.749 8.02526 97.5903 7.73216L99.9288 14.443ZM189.409 7.73216C190.25 8.02525 191.088 8.32592 191.922 8.63458L189.455 15.2995C188.664 15.0067 187.869 14.721 187.071 14.443L189.409 7.73216ZM104.75 12.8673C103.94 13.1147 103.134 13.3701 102.331 13.6326L100.122 6.8766C100.969 6.59993 101.819 6.33219 102.673 6.07137L104.75 12.8673ZM184.327 6.07137C185.18 6.33219 186.03 6.59994 186.877 6.8766L184.669 13.6326C183.866 13.3701 183.06 13.1147 182.25 12.8673L184.327 6.07137ZM109.626 11.4798C108.807 11.6959 107.991 11.9192 107.179 12.1505L105.233 5.31386C106.09 5.07009 106.95 4.83613 107.813 4.60841L109.626 11.4798ZM179.186 4.60841C180.049 4.83612 180.91 5.0701 181.766 5.31386L179.821 12.1505C179.009 11.9192 178.193 11.6959 177.374 11.4798L179.186 4.60841ZM114.551 10.2815C113.725 10.4656 112.902 10.6573 112.082 10.8568L110.401 3.94982C111.265 3.73955 112.133 3.53997 113.003 3.34589L114.551 10.2815ZM173.996 3.34589C174.866 3.53997 175.734 3.73956 176.598 3.94982L174.918 10.8568C174.098 10.6573 173.275 10.4656 172.449 10.2815L173.996 3.34589ZM119.519 9.27322C118.688 9.42518 117.86 9.58481 117.035 9.75219L115.622 2.78708C116.492 2.61069 117.365 2.44307 118.24 2.28294L119.519 9.27322ZM168.759 2.28294C169.635 2.44307 170.507 2.6107 171.377 2.78708L169.965 9.75219C169.14 9.58481 168.312 9.42518 167.481 9.27322L168.759 2.28294ZM124.023 4.93814L124.527 8.4567C123.689 8.57689 122.853 8.7053 122.021 8.8411L120.876 1.82653C121.754 1.68339 122.634 1.54885 123.518 1.42218L124.023 4.93814ZM163.482 1.42218C164.365 1.54885 165.245 1.6834 166.123 1.82653L164.98 8.8411C164.147 8.70527 163.311 8.57692 162.473 8.4567L163.482 1.42218ZM129.565 7.83282C128.72 7.9211 127.877 8.01683 127.038 8.1209L126.164 1.06815C127.049 0.958507 127.936 0.857455 128.825 0.764452L129.565 7.83282ZM158.174 0.764452C159.063 0.85745 159.951 0.958512 160.835 1.06815L159.962 8.1209C159.123 8.01685 158.281 7.92109 157.436 7.83282L158.174 0.764452ZM134.615 7.40157C133.769 7.45756 132.925 7.52155 132.084 7.59333L131.48 0.512817C132.366 0.43718 133.254 0.36876 134.145 0.309772L134.615 7.40157ZM152.855 0.309772C153.745 0.368741 154.634 0.43721 155.52 0.512817L155.218 4.05221L155.218 4.05134L154.916 7.59333C154.075 7.52155 153.231 7.45756 152.385 7.40157L152.855 0.309772ZM139.683 7.16208C138.838 7.18599 137.994 7.21786 137.153 7.25753L136.819 0.158791C137.704 0.117033 138.592 0.0841731 139.482 0.0590043L139.683 7.16208ZM147.517 0.0590043C148.408 0.0841758 149.296 0.11702 150.181 0.158791L149.847 7.25753C149.006 7.21787 148.163 7.18599 147.318 7.16208L147.517 0.0590043ZM144.841 0.00780939L144.809 3.56021L144.809 3.55935L144.776 7.11435C144.351 7.11035 143.926 7.10828 143.5 7.10828C143.074 7.10828 142.649 7.11035 142.224 7.11435L142.191 3.55935L142.158 0.00780939C142.605 0.00359608 143.052 0 143.5 0C143.948 0 144.395 0.00360154 144.841 0.00780939Z" fill="white"/>
<path d="M143.5 271.892V279C143.052 279 142.605 278.996 142.158 278.991L142.224 271.886C142.649 271.89 143.074 271.892 143.5 271.892ZM144.841 278.991C144.395 278.996 143.948 279 143.5 279V271.892C143.926 271.892 144.351 271.89 144.776 271.886L144.841 278.991ZM137.153 271.742C137.994 271.782 138.837 271.814 139.682 271.838L139.581 275.389L139.582 275.39L139.482 278.94C138.592 278.915 137.704 278.882 136.818 278.84L137.153 271.742ZM150.163 278.447L150.18 278.84C149.295 278.882 148.407 278.915 147.517 278.94L147.317 271.838C148.162 271.814 149.006 271.782 149.847 271.742L150.163 278.447ZM132.084 271.407C132.925 271.478 133.769 271.542 134.615 271.598L134.144 278.689C133.254 278.63 132.366 278.562 131.48 278.486L132.084 271.407ZM155.52 278.486C154.633 278.562 153.745 278.63 152.854 278.689L152.385 271.598C153.231 271.542 154.075 271.478 154.916 271.407L155.52 278.486ZM127.038 270.879C127.877 270.983 128.719 271.079 129.564 271.167L128.825 278.235C127.936 278.142 127.049 278.041 126.164 277.931L127.038 270.879ZM160.835 277.931C159.951 278.041 159.063 278.142 158.174 278.235L157.435 271.167C158.28 271.079 159.123 270.983 159.962 270.879L160.835 277.931ZM122.02 270.159C122.853 270.295 123.689 270.423 124.527 270.543L123.518 277.577C122.634 277.45 121.754 277.316 120.876 277.173L122.02 270.159ZM165.551 273.667L166.123 277.173C165.245 277.316 164.365 277.45 163.482 277.577L162.977 274.062L162.473 270.543C163.311 270.423 164.147 270.295 164.979 270.159L165.551 273.667ZM117.035 269.248C117.86 269.415 118.688 269.575 119.519 269.727L118.24 276.716C117.365 276.556 116.492 276.388 115.622 276.212L117.035 269.248ZM171.377 276.212C170.507 276.388 169.635 276.556 168.759 276.716L167.481 269.727C168.312 269.575 169.14 269.415 169.965 269.248L171.377 276.212ZM112.082 268.143C112.902 268.343 113.725 268.534 114.551 268.719L113.003 275.653C112.133 275.459 111.265 275.26 110.401 275.049L112.082 268.143ZM176.598 275.049C175.734 275.26 174.866 275.459 173.996 275.653L172.449 268.719C173.275 268.534 174.098 268.343 174.918 268.143L176.598 275.049ZM107.179 266.849C107.991 267.081 108.807 267.304 109.626 267.52L108.719 270.956L108.72 270.957L107.813 274.391C106.95 274.163 106.09 273.929 105.233 273.685L107.179 266.849ZM181.766 273.685C180.91 273.929 180.049 274.163 179.186 274.391L178.28 270.957L177.374 267.52C178.193 267.304 179.009 267.081 179.821 266.849L181.766 273.685ZM102.331 265.367C103.134 265.63 103.94 265.885 104.75 266.133L102.673 272.928C101.819 272.667 100.969 272.399 100.122 272.123L102.331 265.367ZM186.877 272.123C186.03 272.399 185.18 272.667 184.327 272.928L182.25 266.133C183.06 265.885 183.866 265.63 184.669 265.367L186.877 272.123ZM97.5452 263.701C98.3362 263.993 99.1308 264.279 99.9288 264.557L97.5903 271.267C96.749 270.974 95.9113 270.673 95.0774 270.365L97.5452 263.701ZM191.922 270.365C191.088 270.673 190.25 270.974 189.409 271.267L187.071 264.557C187.869 264.279 188.664 263.993 189.455 263.701L191.922 270.365ZM92.824 261.849C93.6034 262.172 94.3869 262.488 95.1738 262.796L92.5776 269.413C91.7483 269.087 90.9235 268.753 90.102 268.412L92.824 261.849ZM196.897 268.412C196.076 268.753 195.251 269.087 194.422 269.413L191.826 262.796C192.613 262.488 193.397 262.172 194.176 261.849L196.897 268.412ZM88.1774 259.816C88.9446 260.169 89.7157 260.515 90.4907 260.854L87.642 267.367C86.8248 267.009 86.0127 266.642 85.2038 266.269L88.1774 259.816ZM201.795 266.269C200.987 266.641 200.175 267.009 199.358 267.367L196.509 260.854C197.284 260.515 198.055 260.169 198.823 259.816L201.795 266.269ZM83.6124 257.606C84.3661 257.989 85.1247 258.365 85.8867 258.734L82.7889 265.131C81.9856 264.742 81.1869 264.345 80.3923 263.941L83.6124 257.606ZM206.607 263.941C205.812 264.345 205.013 264.742 204.21 265.131L202.662 261.933L201.113 258.734C201.875 258.365 202.634 257.989 203.388 257.606L206.607 263.941ZM79.1367 255.222C79.8748 255.634 80.6176 256.038 81.3642 256.436L79.6929 259.572L79.6938 259.573L78.0235 262.707C77.2368 262.288 76.4539 261.863 75.6763 261.43L79.1367 255.222ZM211.323 261.43C210.545 261.863 209.762 262.288 208.976 262.707L207.306 259.573L205.636 256.436C206.382 256.038 207.125 255.634 207.863 255.222L211.323 261.43ZM74.7557 252.668C75.477 253.108 76.2034 253.54 76.9336 253.966L73.3543 260.104C72.5849 259.655 71.8192 259.202 71.0592 258.739L74.7557 252.668ZM215.94 258.739C215.18 259.202 214.414 259.655 213.645 260.104L210.066 253.966C210.797 253.54 211.523 253.108 212.244 252.668L215.94 258.739ZM70.4735 249.948C71.1779 250.415 71.8874 250.875 72.6012 251.329L68.7893 257.325C68.0373 256.848 67.2901 256.363 66.548 255.871L70.4735 249.948ZM220.451 255.871C219.709 256.363 218.962 256.848 218.21 257.325L214.399 251.329C215.113 250.875 215.822 250.415 216.526 249.948L220.451 255.871ZM66.299 247.066C66.9853 247.559 67.6768 248.046 68.3728 248.527L64.3336 254.375C63.6002 253.869 62.8728 253.354 62.1496 252.834L66.299 247.066ZM224.85 252.834C224.126 253.354 223.399 253.869 222.666 254.375L218.627 248.527C219.323 248.046 220.015 247.559 220.702 247.066L224.85 252.834ZM62.2372 244.025C62.9045 244.545 63.5764 245.058 64.2538 245.565L59.9951 251.256C59.2812 250.722 58.5741 250.179 57.8709 249.631L62.2372 244.025ZM229.128 249.631C228.425 250.179 227.718 250.722 227.004 251.256L222.746 245.565C223.424 245.058 224.096 244.545 224.763 244.025L229.128 249.631ZM58.2943 240.833C58.9411 241.377 59.593 241.916 60.2502 242.448L55.778 247.971C55.0855 247.41 54.3986 246.843 53.7172 246.269L58.2943 240.833ZM233.282 246.269C232.601 246.843 231.914 247.41 231.221 247.971L228.986 245.211L226.75 242.448C227.407 241.916 228.059 241.377 228.706 240.833L233.282 246.269ZM54.4756 237.492C55.1011 238.061 55.7325 238.624 56.3689 239.181L51.6893 244.528C51.0189 243.941 50.3527 243.35 49.6936 242.751L54.4756 237.492ZM237.306 242.751C236.646 243.35 235.98 243.941 235.31 244.528L230.632 239.18C231.268 238.623 231.899 238.061 232.524 237.492L237.306 242.751ZM50.7861 234.007C51.3897 234.6 51.9994 235.186 52.6143 235.767L47.7343 240.933C47.0868 240.321 46.4446 239.704 45.8089 239.08L50.7861 234.007ZM236.214 234.007L241.19 239.08C240.555 239.704 239.912 240.321 239.265 240.933L234.386 235.767C235.001 235.186 235.61 234.6 236.214 234.007ZM47.2328 230.386C47.8135 231.001 48.4002 231.61 48.9925 232.214L44.1637 236.951L43.919 237.19C43.2952 236.554 42.678 235.912 42.0664 235.265L47.2328 230.386ZM244.933 235.265C244.321 235.912 243.704 236.555 243.08 237.19L238.007 232.214C238.6 231.61 239.186 231.001 239.767 230.386L244.933 235.265ZM43.8201 226.632C44.3767 227.268 44.9393 227.899 45.5078 228.524L40.2486 233.306C39.6495 232.646 39.0581 231.98 38.4715 231.31L43.8201 226.632ZM248.528 231.31C247.941 231.98 247.35 232.646 246.751 233.306L241.492 228.524C242.061 227.899 242.624 227.267 243.181 226.631L248.528 231.31ZM40.5523 222.75C41.0844 223.407 41.6227 224.059 42.1671 224.706L39.4477 226.994L39.4486 226.995L37.1005 228.971L36.73 229.282C36.1564 228.601 35.5891 227.914 35.0284 227.221L40.5523 222.75ZM251.69 226.995L251.971 227.221C251.41 227.914 250.843 228.601 250.269 229.282L247.551 226.995L244.833 224.706C245.377 224.059 245.916 223.407 246.448 222.75L251.69 226.995ZM37.4346 218.746C37.9415 219.424 38.4553 220.096 38.9748 220.763L33.3676 225.128C32.8202 224.425 32.2775 223.718 31.7433 223.004L37.4346 218.746ZM255.256 223.004C254.722 223.718 254.179 224.425 253.631 225.128L250.83 222.947L248.025 220.763C248.545 220.096 249.058 219.424 249.565 218.746L255.256 223.004ZM34.4731 214.627C34.9538 215.323 35.4407 216.015 35.9343 216.702L30.1649 220.85C29.6449 220.126 29.1303 219.399 28.6239 218.666L34.4731 214.627ZM258.375 218.666C257.869 219.399 257.354 220.126 256.834 220.85L253.951 218.777L251.066 216.701C251.559 216.015 252.046 215.323 252.527 214.627L258.375 218.666ZM31.6713 210.399C32.1248 211.113 32.5851 211.822 33.0518 212.526L27.1279 216.451C26.6362 215.709 26.1515 214.962 25.6737 214.21L31.6713 210.399ZM261.325 214.21C260.848 214.962 260.363 215.709 259.871 216.451L253.948 212.526C254.415 211.822 254.875 211.113 255.329 210.399L261.325 214.21ZM29.0343 206.066C29.4599 206.797 29.8924 207.523 30.3315 208.244L24.2602 211.94C23.7975 211.18 23.3437 210.414 22.8953 209.645L29.0343 206.066ZM264.104 209.645C263.655 210.414 263.202 211.18 262.739 211.94L256.668 208.244C257.108 207.523 257.54 206.797 257.966 206.066L264.104 209.645ZM26.5639 201.636C26.9615 202.382 27.3664 203.125 27.7779 203.863L21.5694 207.323C21.1359 206.545 20.711 205.762 20.2921 204.976L26.5639 201.636ZM263.572 203.306L266.707 204.976C266.288 205.762 265.863 206.545 265.43 207.323L259.222 203.863C259.634 203.125 260.038 202.382 260.436 201.636L263.572 203.306ZM24.2662 197.113C24.6351 197.875 25.0113 198.634 25.3943 199.388L19.0582 202.607C18.6545 201.812 18.2575 201.013 17.8686 200.21L24.2662 197.113ZM269.131 200.21C268.742 201.013 268.345 201.812 267.941 202.607L261.606 199.388C261.989 198.634 262.365 197.875 262.734 197.113L269.131 200.21ZM22.1456 192.509C22.4846 193.284 22.8308 194.055 23.1842 194.823L19.9555 196.309L19.9563 196.31L16.7302 197.795C16.3577 196.987 15.9899 196.175 15.6325 195.358L22.1456 192.509ZM271.367 195.358C271.009 196.175 270.641 196.987 270.269 197.795L267.044 196.31L263.816 194.823C264.169 194.055 264.515 193.284 264.854 192.509L271.367 195.358ZM20.2036 187.826C20.5123 188.613 20.8279 189.397 21.1512 190.176L17.8677 191.537L17.8686 191.537L14.5869 192.897C14.2463 192.076 13.9118 191.251 13.5865 190.422L20.2036 187.826ZM273.413 190.422C273.087 191.251 272.753 192.076 272.412 192.897L269.131 191.537L265.849 190.176C266.172 189.397 266.488 188.613 266.796 187.826L273.413 190.422ZM18.443 183.071C18.721 183.869 19.0067 184.664 19.2995 185.455L12.6346 187.922C12.3259 187.088 12.0253 186.25 11.7322 185.409L18.443 183.071ZM275.267 185.409C274.974 186.25 274.673 187.088 274.365 187.922L271.033 186.689L267.701 185.455C267.993 184.664 268.279 183.869 268.557 183.071L275.267 185.409ZM16.8673 178.25C17.1147 179.06 17.3701 179.866 17.6326 180.669L10.8766 182.877C10.5999 182.03 10.3322 181.18 10.0714 180.327L16.8673 178.25ZM276.928 180.327C276.667 181.18 276.399 182.03 276.123 182.877L269.367 180.669C269.63 179.866 269.885 179.06 270.133 178.25L276.928 180.327ZM15.4798 173.374C15.6959 174.193 15.9192 175.009 16.1505 175.821L12.7318 176.793L12.7326 176.794L9.31386 177.766C9.0701 176.91 8.83612 176.049 8.60841 175.186L15.4798 173.374ZM278.391 175.186C278.163 176.049 277.929 176.91 277.685 177.766L274.267 176.794L270.849 175.821C271.081 175.009 271.304 174.193 271.52 173.374L278.391 175.186ZM14.2815 168.449C14.4656 169.275 14.6573 170.098 14.8568 170.918L7.94982 172.598C7.73956 171.734 7.53997 170.866 7.34589 169.996L14.2815 168.449ZM279.653 169.996C279.459 170.866 279.26 171.734 279.049 172.598L272.143 170.918C272.343 170.098 272.534 169.275 272.719 168.449L279.653 169.996ZM13.2732 163.481C13.4252 164.312 13.5848 165.14 13.7522 165.965L6.78708 167.377C6.6107 166.507 6.44307 165.635 6.28294 164.759L13.2732 163.481ZM280.716 164.759C280.556 165.635 280.388 166.507 280.212 167.377L273.248 165.965C273.415 165.14 273.575 164.312 273.727 163.481L280.716 164.759ZM12.4567 158.473C12.5769 159.311 12.7053 160.147 12.8411 160.979L9.33208 161.551L9.33295 161.552L5.82653 162.123C5.6834 161.245 5.54885 160.365 5.42218 159.482L12.4567 158.473ZM281.577 159.482C281.45 160.365 281.316 161.245 281.173 162.123L274.159 160.98C274.295 160.147 274.423 159.311 274.543 158.473L281.577 159.482ZM11.8328 153.435C11.9211 154.28 12.0168 155.123 12.1209 155.962L5.06815 156.835C4.95851 155.951 4.85745 155.063 4.76445 154.174L11.8328 153.435ZM282.235 154.174C282.142 155.063 282.041 155.951 281.931 156.835L278.406 156.4L274.879 155.962C274.983 155.123 275.079 154.281 275.167 153.436L282.235 154.174ZM11.4016 148.385C11.4576 149.231 11.5216 150.075 11.5933 150.916L4.51282 151.52C4.43719 150.633 4.36875 149.745 4.30977 148.854L11.4016 148.385ZM282.689 148.855C282.63 149.745 282.562 150.634 282.486 151.52L278.948 151.218L275.407 150.916C275.478 150.075 275.542 149.231 275.598 148.385L282.689 148.855ZM279.389 143.418L282.94 143.517C282.915 144.408 282.882 145.296 282.84 146.181L279.292 146.015L275.742 145.847C275.782 145.006 275.814 144.163 275.838 143.318L279.389 143.418ZM11.1621 143.317C11.186 144.162 11.2179 145.006 11.2575 145.847L4.15879 146.18C4.11704 145.295 4.08417 144.407 4.059 143.517L11.1621 143.317ZM4 139.5C4 139.052 4.0036 138.605 4.00781 138.158L7.56021 138.191L11.1144 138.224C11.1104 138.649 11.1083 139.074 11.1083 139.5C11.1083 139.926 11.1104 140.351 11.1144 140.776L7.55935 140.809L7.56021 140.809L4.00781 140.841C4.0036 140.395 4 139.948 4 139.5ZM282.991 140.841L279.44 140.809L275.886 140.776C275.89 140.351 275.892 139.926 275.892 139.5C275.892 139.074 275.89 138.649 275.886 138.224L282.991 138.158C282.996 138.605 283 139.052 283 139.5C283 139.948 282.996 140.395 282.991 140.841ZM282.84 132.819C282.882 133.704 282.915 134.592 282.94 135.482L275.838 135.683C275.814 134.838 275.782 133.994 275.742 133.153L282.84 132.819ZM7.70772 132.985L11.2575 133.153C11.2179 133.994 11.186 134.837 11.1621 135.682L7.60967 135.581L4.059 135.482C4.08418 134.592 4.11701 133.704 4.15879 132.818L7.70772 132.985ZM8.05221 127.782L11.5933 128.084C11.5216 128.925 11.4576 129.769 11.4016 130.615L4.30977 130.144C4.36875 129.254 4.4372 128.366 4.51282 127.48L8.05221 127.782ZM282.486 127.48C282.562 128.366 282.63 129.254 282.689 130.145L275.598 130.615C275.542 129.769 275.478 128.925 275.407 128.084L282.486 127.48ZM281.931 122.164C282.041 123.049 282.142 123.936 282.235 124.825L275.167 125.565C275.079 124.72 274.983 123.877 274.879 123.038L281.931 122.164ZM8.59366 122.6L12.1209 123.038C12.0168 123.877 11.9211 124.719 11.8328 125.564L4.76445 124.825C4.85746 123.936 4.95851 123.049 5.06815 122.164L8.59366 122.6ZM12.8411 118.02C12.7053 118.853 12.5769 119.689 12.4567 120.527L5.42218 119.518C5.54885 118.634 5.68339 117.754 5.82653 116.876L12.8411 118.02ZM281.173 116.876C281.316 117.754 281.45 118.634 281.577 119.518L278.062 120.023L278.061 120.022L274.543 120.527C274.423 119.689 274.295 118.853 274.159 118.021L281.173 116.876ZM13.7522 113.035C13.5848 113.86 13.4252 114.688 13.2732 115.519L6.28294 114.24C6.44307 113.365 6.61069 112.492 6.78708 111.622L13.7522 113.035ZM280.212 111.622C280.388 112.492 280.556 113.365 280.716 114.24L273.727 115.519C273.575 114.688 273.415 113.86 273.248 113.035L280.212 111.622ZM14.8568 108.082C14.6573 108.902 14.4656 109.725 14.2815 110.551L7.34589 109.003C7.53997 108.133 7.73955 107.265 7.94982 106.401L14.8568 108.082ZM279.049 106.401C279.26 107.265 279.459 108.133 279.653 109.003L272.719 110.551C272.534 109.725 272.343 108.902 272.143 108.082L279.049 106.401ZM12.7326 102.206L16.1505 103.179C15.9192 103.991 15.6959 104.807 15.4798 105.626L12.0428 104.719L8.60841 103.813C8.83613 102.95 9.07009 102.09 9.31386 101.233L12.7326 102.206ZM277.685 101.233C277.929 102.09 278.163 102.95 278.391 103.813L274.957 104.72L274.956 104.719L271.52 105.626C271.304 104.807 271.081 103.991 270.849 103.179L277.685 101.233ZM17.6326 98.3306C17.3701 99.1336 17.1147 99.9402 16.8673 100.75L10.0714 98.6725C10.3322 97.819 10.5999 96.9687 10.8766 96.1223L17.6326 98.3306ZM276.123 96.1223C276.399 96.9687 276.667 97.819 276.928 98.6725L270.133 100.75C269.885 99.9402 269.63 99.1336 269.367 98.3306L276.123 96.1223ZM15.9666 92.3113L19.2995 93.5452C19.0067 94.3362 18.721 95.1308 18.443 95.9288L11.7322 93.5903C12.0253 92.749 12.3259 91.9113 12.6346 91.0774L15.9666 92.3113ZM274.365 91.0774C274.673 91.9113 274.974 92.749 275.267 93.5903L268.557 95.9288C268.279 95.1308 267.993 94.3362 267.701 93.5452L274.365 91.0774ZM17.8686 87.4626L21.1512 88.824C20.8279 89.6034 20.5123 90.3869 20.2036 91.1738L13.5865 88.5776C13.9118 87.7483 14.2463 86.9235 14.5869 86.102L17.8686 87.4626ZM272.412 86.102C272.753 86.9235 273.087 87.7483 273.413 88.5776L266.796 91.1738C266.488 90.3869 266.172 89.6034 265.849 88.824L272.412 86.102ZM23.1842 84.1774C22.8308 84.9446 22.4846 85.7157 22.1456 86.4907L15.6334 83.642L15.6325 83.6412C15.9899 82.8242 16.3577 82.0125 16.7302 81.2038L23.1842 84.1774ZM270.269 81.2038C270.642 82.0128 271.009 82.8248 271.367 83.642L264.854 86.4907C264.515 85.7157 264.169 84.9446 263.816 84.1774L270.269 81.2038ZM25.3943 79.6124C25.0113 80.3661 24.6351 81.1247 24.2662 81.8867L17.8686 78.7889C18.2575 77.9856 18.6545 77.1869 19.0582 76.3923L25.3943 79.6124ZM267.941 76.3923C268.345 77.1869 268.742 77.9856 269.131 78.7889L262.734 81.8867C262.365 81.1247 261.989 80.3661 261.606 79.6124L267.941 76.3923ZM27.7779 75.1367C27.3664 75.8748 26.9615 76.6176 26.5639 77.3642L23.4272 75.6929L20.2921 74.0235C20.7111 73.2368 21.1359 72.4539 21.5694 71.6763L27.7779 75.1367ZM265.43 71.6763C265.863 72.4539 266.288 73.2368 266.707 74.0235L263.573 75.6938L263.572 75.6929L260.436 77.3642C260.038 76.6176 259.634 75.8748 259.222 75.1367L265.43 71.6763ZM30.3315 70.7557C29.8924 71.477 29.4599 72.2034 29.0343 72.9336L22.8953 69.3543C23.3437 68.5849 23.7975 67.8192 24.2602 67.0592L30.3315 70.7557ZM262.739 67.0592C263.202 67.8192 263.655 68.5849 264.104 69.3543L257.966 72.9336C257.54 72.2034 257.108 71.477 256.668 70.7557L262.739 67.0592ZM33.0518 66.4735C32.5851 67.1779 32.1248 67.8874 31.6713 68.6012L25.6737 64.7893C26.1515 64.0373 26.6362 63.2901 27.1279 62.548L33.0518 66.4735ZM259.871 62.548C260.363 63.2901 260.848 64.0373 261.325 64.7893L255.329 68.6012C254.875 67.8875 254.415 67.1779 253.948 66.4735L259.871 62.548ZM33.0492 60.2234L35.9343 62.299C35.4409 62.9853 34.9537 63.6768 34.4731 64.3728L28.6239 60.3336C29.1303 59.6002 29.6449 58.8728 30.1649 58.1496L33.0492 60.2234ZM256.834 58.1496C257.354 58.8728 257.869 59.6002 258.375 60.3336L252.527 64.3728C252.046 63.6766 251.559 62.9845 251.066 62.2981L256.834 58.1496ZM36.1703 56.0532L38.9748 58.2372C38.4553 58.9045 37.9415 59.5764 37.4346 60.2538L31.7433 55.9951C32.2775 55.2812 32.8202 54.5741 33.3676 53.8709L36.1703 56.0532ZM253.631 53.8709C254.179 54.5741 254.722 55.2812 255.256 55.9951L249.565 60.2538C249.058 59.5764 248.545 58.9045 248.025 58.2372L253.631 53.8709ZM39.4486 52.0053L42.1671 54.2943C41.6227 54.9411 41.0844 55.593 40.5523 56.2502L35.0284 51.778C35.5891 51.0855 36.1564 50.3986 36.73 49.7172L39.4486 52.0053ZM250.269 49.7172C250.843 50.3986 251.41 51.0855 251.971 51.778L249.211 54.0141L249.21 54.0132L246.448 56.2502C245.916 55.593 245.377 54.9411 244.833 54.2943L250.269 49.7172ZM40.2486 45.6936L45.5078 50.4756C44.9391 51.1011 44.376 51.7325 43.8192 52.3689L38.4715 47.6893C39.0553 47.0221 39.6437 46.3591 40.2399 45.7032L40.2486 45.6936ZM246.751 45.6936C247.35 46.3527 247.941 47.0189 248.528 47.6893L243.18 52.368C242.623 51.7318 242.061 51.1009 241.492 50.4756L246.751 45.6936ZM48.9925 46.7861C48.4002 47.3897 47.8135 47.9994 47.2328 48.6143L42.0664 43.7343C42.678 43.0868 43.2952 42.4446 43.919 41.8089L48.9925 46.7861ZM243.08 41.8089C243.704 42.4446 244.321 43.0868 244.933 43.7343L239.767 48.6143C239.186 47.9994 238.6 47.3897 238.007 46.7861L243.08 41.8089ZM52.6143 43.2328C51.9994 43.8135 51.3897 44.4002 50.7861 44.9925L45.8089 39.919C46.4446 39.2952 47.0868 38.678 47.7343 38.0664L52.6143 43.2328ZM239.265 38.0664C239.912 38.678 240.555 39.2952 241.19 39.919L236.214 44.9925C235.61 44.4002 235.001 43.8135 234.386 43.2328L239.265 38.0664ZM56.368 39.8201C55.7318 40.3767 55.1009 40.9393 54.4756 41.5078L49.6936 36.2486C50.3527 35.6495 51.0189 35.0581 51.6893 34.4715L56.368 39.8201ZM235.31 34.4715C235.98 35.0581 236.646 35.6495 237.306 36.2486L232.524 41.5078C231.899 40.9391 231.267 40.376 230.631 39.8192L235.31 34.4715ZM58.0141 33.7895L60.2502 36.5523C59.593 37.0844 58.9411 37.6227 58.2943 38.1671L53.7172 32.73C54.3986 32.1564 55.0855 31.5891 55.778 31.0284L58.0141 33.7895ZM231.221 31.0284C231.914 31.5891 232.601 32.1564 233.282 32.73L228.706 38.1671C228.059 37.6227 227.407 37.0844 226.75 36.5523L231.221 31.0284ZM64.2538 33.4346C63.5764 33.9415 62.9045 34.4553 62.2372 34.9748L57.8709 29.3676C58.5741 28.8202 59.2812 28.2775 59.9951 27.7433L64.2538 33.4346ZM227.004 27.7433C227.718 28.2775 228.425 28.8202 229.128 29.3676L226.947 32.1703L226.946 32.1695L224.763 34.9748C224.096 34.4553 223.424 33.9415 222.746 33.4346L227.004 27.7433ZM68.3728 30.4731C67.6766 30.9538 66.9845 31.4407 66.2981 31.9343L62.1496 26.1649C62.8728 25.6449 63.6002 25.1303 64.3336 24.6239L68.3728 30.4731ZM222.666 24.6239C223.399 25.1303 224.126 25.6449 224.85 26.1649L222.777 29.0492L222.776 29.0483L220.701 31.9343C220.015 31.4409 219.323 30.9537 218.627 30.4731L222.666 24.6239ZM72.6012 27.6713C71.8875 28.1248 71.1779 28.5851 70.4735 29.0518L66.548 23.1279C67.2901 22.6362 68.0373 22.1515 68.7893 21.6737L72.6012 27.6713ZM218.21 21.6737C218.962 22.1515 219.709 22.6362 220.451 23.1279L216.526 29.0518C215.822 28.5851 215.113 28.1248 214.399 27.6713L218.21 21.6737ZM76.9336 25.0343C76.2034 25.4599 75.477 25.8924 74.7557 26.3315L71.0592 20.2602C71.8192 19.7975 72.5849 19.3437 73.3543 18.8953L76.9336 25.0343ZM213.645 18.8953C214.414 19.3437 215.18 19.7975 215.94 20.2602L212.244 26.3315C211.523 25.8924 210.797 25.4599 210.066 25.0343L213.645 18.8953ZM79.6938 19.4272L81.3642 22.5639C80.6176 22.9615 79.8748 23.3664 79.1367 23.7779L75.6763 17.5694C76.4539 17.1359 77.2368 16.7111 78.0235 16.2921L79.6938 19.4272ZM208.976 16.2921C209.762 16.711 210.545 17.1359 211.323 17.5694L207.863 23.7779C207.125 23.3664 206.382 22.9615 205.636 22.5639L208.976 16.2921ZM85.8867 20.2662C85.1247 20.6351 84.3661 21.0113 83.6124 21.3943L80.3923 15.0582C81.1869 14.6545 81.9856 14.2575 82.7889 13.8686L85.8867 20.2662ZM204.21 13.8686C205.013 14.2575 205.812 14.6545 206.607 15.0582L203.388 21.3943C202.634 21.0113 201.875 20.6351 201.113 20.2662L204.21 13.8686ZM87.642 11.6334L90.4907 18.1456C89.7157 18.4846 88.9446 18.8308 88.1774 19.1842L85.2038 12.7302C86.0125 12.3577 86.8242 11.9899 87.6412 11.6325L87.642 11.6334ZM199.358 11.6325C200.175 11.9899 200.987 12.3577 201.795 12.7302L198.823 19.1842C198.055 18.8308 197.284 18.4846 196.509 18.1456L199.358 11.6325ZM95.1738 16.2036C94.3869 16.5123 93.6034 16.8279 92.824 17.1512L90.102 10.5869C90.9235 10.2463 91.7483 9.91177 92.5776 9.58646L95.1738 16.2036ZM194.422 9.58646C195.251 9.91177 196.076 10.2463 196.897 10.5869L194.176 17.1512C193.397 16.8279 192.613 16.5123 191.826 16.2036L194.422 9.58646ZM99.9288 14.443C99.1308 14.721 98.3362 15.0067 97.5452 15.2995L95.0774 8.63458C95.9113 8.32592 96.749 8.02526 97.5903 7.73216L99.9288 14.443ZM189.409 7.73216C190.25 8.02525 191.088 8.32592 191.922 8.63458L189.455 15.2995C188.664 15.0067 187.869 14.721 187.071 14.443L189.409 7.73216ZM104.75 12.8673C103.94 13.1147 103.134 13.3701 102.331 13.6326L100.122 6.8766C100.969 6.59993 101.819 6.33219 102.673 6.07137L104.75 12.8673ZM184.327 6.07137C185.18 6.33219 186.03 6.59994 186.877 6.8766L184.669 13.6326C183.866 13.3701 183.06 13.1147 182.25 12.8673L184.327 6.07137ZM109.626 11.4798C108.807 11.6959 107.991 11.9192 107.179 12.1505L105.233 5.31386C106.09 5.07009 106.95 4.83613 107.813 4.60841L109.626 11.4798ZM179.186 4.60841C180.049 4.83612 180.91 5.0701 181.766 5.31386L179.821 12.1505C179.009 11.9192 178.193 11.6959 177.374 11.4798L179.186 4.60841ZM114.551 10.2815C113.725 10.4656 112.902 10.6573 112.082 10.8568L110.401 3.94982C111.265 3.73955 112.133 3.53997 113.003 3.34589L114.551 10.2815ZM173.996 3.34589C174.866 3.53997 175.734 3.73956 176.598 3.94982L174.918 10.8568C174.098 10.6573 173.275 10.4656 172.449 10.2815L173.996 3.34589ZM119.519 9.27322C118.688 9.42518 117.86 9.58481 117.035 9.75219L115.622 2.78708C116.492 2.61069 117.365 2.44307 118.24 2.28294L119.519 9.27322ZM168.759 2.28294C169.635 2.44307 170.507 2.6107 171.377 2.78708L169.965 9.75219C169.14 9.58481 168.312 9.42518 167.481 9.27322L168.759 2.28294ZM124.023 4.93814L124.527 8.4567C123.689 8.57689 122.853 8.7053 122.021 8.8411L120.876 1.82653C121.754 1.68339 122.634 1.54885 123.518 1.42218L124.023 4.93814ZM163.482 1.42218C164.365 1.54885 165.245 1.6834 166.123 1.82653L164.98 8.8411C164.147 8.70527 163.311 8.57692 162.473 8.4567L163.482 1.42218ZM129.565 7.83282C128.72 7.9211 127.877 8.01683 127.038 8.1209L126.164 1.06815C127.049 0.958507 127.936 0.857455 128.825 0.764452L129.565 7.83282ZM158.174 0.764452C159.063 0.85745 159.951 0.958512 160.835 1.06815L159.962 8.1209C159.123 8.01685 158.281 7.92109 157.436 7.83282L158.174 0.764452ZM134.615 7.40157C133.769 7.45756 132.925 7.52155 132.084 7.59333L131.48 0.512817C132.366 0.43718 133.254 0.36876 134.145 0.309772L134.615 7.40157ZM152.855 0.309772C153.745 0.368741 154.634 0.43721 155.52 0.512817L155.218 4.05221L155.218 4.05134L154.916 7.59333C154.075 7.52155 153.231 7.45756 152.385 7.40157L152.855 0.309772ZM139.683 7.16208C138.838 7.18599 137.994 7.21786 137.153 7.25753L136.819 0.158791C137.704 0.117033 138.592 0.0841731 139.482 0.0590043L139.683 7.16208ZM147.517 0.0590043C148.408 0.0841758 149.296 0.11702 150.181 0.158791L149.847 7.25753C149.006 7.21787 148.163 7.18599 147.318 7.16208L147.517 0.0590043ZM144.841 0.00780939L144.809 3.56021L144.809 3.55935L144.776 7.11435C144.351 7.11035 143.926 7.10828 143.5 7.10828C143.074 7.10828 142.649 7.11035 142.224 7.11435L142.191 3.55935L142.158 0.00780939C142.605 0.00359608 143.052 0 143.5 0C143.948 0 144.395 0.00360154 144.841 0.00780939Z" fill="white"/>
<path d="M240.088 169.944C239.353 169.944 238.69 169.778 238.098 169.446C237.511 169.109 237.005 168.644 236.578 168.051C236.152 167.459 235.826 166.775 235.601 165.999C235.376 165.217 235.263 164.382 235.263 163.493C235.263 162.604 235.376 161.769 235.601 160.987C235.826 160.205 236.152 159.521 236.578 158.935C237.005 158.342 237.511 157.88 238.098 157.549C238.69 157.211 239.353 157.042 240.088 157.042C240.811 157.042 241.468 157.211 242.06 157.549C242.653 157.88 243.156 158.342 243.571 158.935C243.992 159.521 244.314 160.205 244.539 160.987C244.765 161.769 244.877 162.604 244.877 163.493C244.877 164.382 244.765 165.217 244.539 165.999C244.314 166.775 243.992 167.459 243.571 168.051C243.156 168.644 242.653 169.109 242.06 169.446C241.468 169.778 240.811 169.944 240.088 169.944ZM240.088 168.096C240.769 168.096 241.335 167.882 241.785 167.456C242.241 167.023 242.582 166.458 242.807 165.759C243.032 165.06 243.144 164.305 243.144 163.493C243.144 162.64 243.026 161.867 242.789 161.174C242.558 160.475 242.214 159.921 241.758 159.512C241.308 159.098 240.751 158.89 240.088 158.89C239.561 158.89 239.102 159.015 238.711 159.264C238.326 159.512 238.006 159.853 237.751 160.285C237.502 160.718 237.313 161.209 237.182 161.76C237.058 162.311 236.996 162.889 236.996 163.493C236.996 164.305 237.111 165.06 237.342 165.759C237.573 166.458 237.917 167.023 238.373 167.456C238.835 167.882 239.407 168.096 240.088 168.096Z" fill="white"/>
<path d="M240.088 169.944C239.353 169.944 238.69 169.778 238.098 169.446C237.511 169.109 237.005 168.644 236.578 168.051C236.152 167.459 235.826 166.775 235.601 165.999C235.376 165.217 235.263 164.382 235.263 163.493C235.263 162.604 235.376 161.769 235.601 160.987C235.826 160.205 236.152 159.521 236.578 158.935C237.005 158.342 237.511 157.88 238.098 157.549C238.69 157.211 239.353 157.042 240.088 157.042C240.811 157.042 241.468 157.211 242.06 157.549C242.653 157.88 243.156 158.342 243.571 158.935C243.992 159.521 244.314 160.205 244.539 160.987C244.765 161.769 244.877 162.604 244.877 163.493C244.877 164.382 244.765 165.217 244.539 165.999C244.314 166.775 243.992 167.459 243.571 168.051C243.156 168.644 242.653 169.109 242.06 169.446C241.468 169.778 240.811 169.944 240.088 169.944ZM240.088 168.096C240.769 168.096 241.335 167.882 241.785 167.456C242.241 167.023 242.582 166.458 242.807 165.759C243.032 165.06 243.144 164.305 243.144 163.493C243.144 162.64 243.026 161.867 242.789 161.174C242.558 160.475 242.214 159.921 241.758 159.512C241.308 159.098 240.751 158.89 240.088 158.89C239.561 158.89 239.102 159.015 238.711 159.264C238.326 159.512 238.006 159.853 237.751 160.285C237.502 160.718 237.313 161.209 237.182 161.76C237.058 162.311 236.996 162.889 236.996 163.493C236.996 164.305 237.111 165.06 237.342 165.759C237.573 166.458 237.917 167.023 238.373 167.456C238.835 167.882 239.407 168.096 240.088 168.096Z" fill="white"/>
<path d="M225.023 169.713V168.069C225.444 167.719 225.926 167.314 226.471 166.852C227.016 166.384 227.57 165.889 228.133 165.368C228.696 164.841 229.214 164.316 229.688 163.795C230.162 163.268 230.544 162.77 230.834 162.302C231.13 161.828 231.278 161.417 231.278 161.067C231.278 160.67 231.18 160.309 230.985 159.983C230.795 159.652 230.538 159.388 230.212 159.192C229.886 158.991 229.525 158.89 229.128 158.89C228.731 158.89 228.367 158.991 228.035 159.192C227.709 159.388 227.446 159.652 227.244 159.983C227.049 160.309 226.951 160.67 226.951 161.067H225.103C225.103 160.315 225.287 159.637 225.654 159.033C226.027 158.422 226.516 157.94 227.12 157.584C227.73 157.223 228.399 157.042 229.128 157.042C229.862 157.042 230.532 157.223 231.136 157.584C231.74 157.946 232.223 158.431 232.584 159.041C232.946 159.646 233.126 160.321 233.126 161.067C233.126 161.482 233.04 161.908 232.869 162.347C232.697 162.785 232.457 163.232 232.149 163.688C231.847 164.145 231.494 164.607 231.092 165.075C230.689 165.543 230.256 166.011 229.794 166.478C229.332 166.946 228.861 167.408 228.382 167.865H233.233V169.713H225.023Z" fill="white"/>
<path d="M225.023 169.713V168.069C225.444 167.719 225.926 167.314 226.471 166.852C227.016 166.384 227.57 165.889 228.133 165.368C228.696 164.841 229.214 164.316 229.688 163.795C230.162 163.268 230.544 162.77 230.834 162.302C231.13 161.828 231.278 161.417 231.278 161.067C231.278 160.67 231.18 160.309 230.985 159.983C230.795 159.652 230.538 159.388 230.212 159.192C229.886 158.991 229.525 158.89 229.128 158.89C228.731 158.89 228.367 158.991 228.035 159.192C227.709 159.388 227.446 159.652 227.244 159.983C227.049 160.309 226.951 160.67 226.951 161.067H225.103C225.103 160.315 225.287 159.637 225.654 159.033C226.027 158.422 226.516 157.94 227.12 157.584C227.73 157.223 228.399 157.042 229.128 157.042C229.862 157.042 230.532 157.223 231.136 157.584C231.74 157.946 232.223 158.431 232.584 159.041C232.946 159.646 233.126 160.321 233.126 161.067C233.126 161.482 233.04 161.908 232.869 162.347C232.697 162.785 232.457 163.232 232.149 163.688C231.847 164.145 231.494 164.607 231.092 165.075C230.689 165.543 230.256 166.011 229.794 166.478C229.332 166.946 228.861 167.408 228.382 167.865H233.233V169.713H225.023Z" fill="white"/>
<path d="M218.114 169.944C217.379 169.944 216.716 169.778 216.123 169.446C215.537 169.109 215.031 168.644 214.604 168.051C214.178 167.459 213.852 166.775 213.627 165.999C213.402 165.217 213.289 164.382 213.289 163.493C213.289 162.604 213.402 161.769 213.627 160.987C213.852 160.205 214.178 159.521 214.604 158.935C215.031 158.342 215.537 157.88 216.123 157.549C216.716 157.211 217.379 157.042 218.114 157.042C218.836 157.042 219.494 157.211 220.086 157.549C220.679 157.88 221.182 158.342 221.597 158.935C222.017 159.521 222.34 160.205 222.565 160.987C222.79 161.769 222.903 162.604 222.903 163.493C222.903 164.382 222.79 165.217 222.565 165.999C222.34 166.775 222.017 167.459 221.597 168.051C221.182 168.644 220.679 169.109 220.086 169.446C219.494 169.778 218.836 169.944 218.114 169.944ZM218.114 168.096C218.795 168.096 219.361 167.882 219.811 167.456C220.267 167.023 220.608 166.458 220.833 165.759C221.058 165.06 221.17 164.305 221.17 163.493C221.17 162.64 221.052 161.867 220.815 161.174C220.584 160.475 220.24 159.921 219.784 159.512C219.334 159.098 218.777 158.89 218.114 158.89C217.587 158.89 217.128 159.015 216.737 159.264C216.352 159.512 216.032 159.853 215.777 160.285C215.528 160.718 215.339 161.209 215.208 161.76C215.084 162.311 215.022 162.889 215.022 163.493C215.022 164.305 215.137 165.06 215.368 165.759C215.599 166.458 215.943 167.023 216.399 167.456C216.861 167.882 217.433 168.096 218.114 168.096Z" fill="white"/>
<path d="M218.114 169.944C217.379 169.944 216.716 169.778 216.123 169.446C215.537 169.109 215.031 168.644 214.604 168.051C214.178 167.459 213.852 166.775 213.627 165.999C213.402 165.217 213.289 164.382 213.289 163.493C213.289 162.604 213.402 161.769 213.627 160.987C213.852 160.205 214.178 159.521 214.604 158.935C215.031 158.342 215.537 157.88 216.123 157.549C216.716 157.211 217.379 157.042 218.114 157.042C218.836 157.042 219.494 157.211 220.086 157.549C220.679 157.88 221.182 158.342 221.597 158.935C222.017 159.521 222.34 160.205 222.565 160.987C222.79 161.769 222.903 162.604 222.903 163.493C222.903 164.382 222.79 165.217 222.565 165.999C222.34 166.775 222.017 167.459 221.597 168.051C221.182 168.644 220.679 169.109 220.086 169.446C219.494 169.778 218.836 169.944 218.114 169.944ZM218.114 168.096C218.795 168.096 219.361 167.882 219.811 167.456C220.267 167.023 220.608 166.458 220.833 165.759C221.058 165.06 221.17 164.305 221.17 163.493C221.17 162.64 221.052 161.867 220.815 161.174C220.584 160.475 220.24 159.921 219.784 159.512C219.334 159.098 218.777 158.89 218.114 158.89C217.587 158.89 217.128 159.015 216.737 159.264C216.352 159.512 216.032 159.853 215.777 160.285C215.528 160.718 215.339 161.209 215.208 161.76C215.084 162.311 215.022 162.889 215.022 163.493C215.022 164.305 215.137 165.06 215.368 165.759C215.599 166.458 215.943 167.023 216.399 167.456C216.861 167.882 217.433 168.096 218.114 168.096Z" fill="white"/>
<path d="M203.043 169.713V168.069C203.464 167.719 203.947 167.314 204.492 166.852C205.037 166.384 205.591 165.889 206.153 165.368C206.716 164.841 207.234 164.316 207.708 163.795C208.182 163.268 208.564 162.77 208.854 162.302C209.151 161.828 209.299 161.417 209.299 161.067C209.299 160.67 209.201 160.309 209.006 159.983C208.816 159.652 208.558 159.388 208.232 159.192C207.907 158.991 207.545 158.89 207.148 158.89C206.752 158.89 206.387 158.991 206.056 159.192C205.73 159.388 205.466 159.652 205.265 159.983C205.069 160.309 204.972 160.67 204.972 161.067H203.123C203.123 160.315 203.307 159.637 203.674 159.033C204.047 158.422 204.536 157.94 205.14 157.584C205.751 157.223 206.42 157.042 207.148 157.042C207.883 157.042 208.552 157.223 209.157 157.584C209.761 157.946 210.244 158.431 210.605 159.041C210.966 159.646 211.147 160.321 211.147 161.067C211.147 161.482 211.061 161.908 210.889 162.347C210.717 162.785 210.478 163.232 210.17 163.688C209.867 164.145 209.515 164.607 209.112 165.075C208.709 165.543 208.277 166.011 207.815 166.478C207.353 166.946 206.882 167.408 206.402 167.865H211.254V169.713H203.043Z" fill="white"/>
<path d="M203.043 169.713V168.069C203.464 167.719 203.947 167.314 204.492 166.852C205.037 166.384 205.591 165.889 206.153 165.368C206.716 164.841 207.234 164.316 207.708 163.795C208.182 163.268 208.564 162.77 208.854 162.302C209.151 161.828 209.299 161.417 209.299 161.067C209.299 160.67 209.201 160.309 209.006 159.983C208.816 159.652 208.558 159.388 208.232 159.192C207.907 158.991 207.545 158.89 207.148 158.89C206.752 158.89 206.387 158.991 206.056 159.192C205.73 159.388 205.466 159.652 205.265 159.983C205.069 160.309 204.972 160.67 204.972 161.067H203.123C203.123 160.315 203.307 159.637 203.674 159.033C204.047 158.422 204.536 157.94 205.14 157.584C205.751 157.223 206.42 157.042 207.148 157.042C207.883 157.042 208.552 157.223 209.157 157.584C209.761 157.946 210.244 158.431 210.605 159.041C210.966 159.646 211.147 160.321 211.147 161.067C211.147 161.482 211.061 161.908 210.889 162.347C210.717 162.785 210.478 163.232 210.17 163.688C209.867 164.145 209.515 164.607 209.112 165.075C208.709 165.543 208.277 166.011 207.815 166.478C207.353 166.946 206.882 167.408 206.402 167.865H211.254V169.713H203.043Z" fill="white"/>
<path d="M194.695 163.448H200.382V165.297H194.695V163.448Z" fill="white"/>
<path d="M194.695 163.448H200.382V165.297H194.695V163.448Z" fill="white"/>
<path d="M188.688 169.709V166.528H183.366V164.671L188.244 157.269H190.536V164.679H191.674V166.528H190.536V169.709H188.688ZM185.516 164.671L188.688 164.679L188.67 159.819L185.516 164.671Z" fill="white"/>
<path d="M188.688 169.709V166.528H183.366V164.671L188.244 157.269H190.536V164.679H191.674V166.528H190.536V169.709H188.688ZM185.516 164.671L188.688 164.679L188.67 159.819L185.516 164.671Z" fill="white"/>
<path d="M179.715 169.936C179.442 169.936 179.211 169.842 179.022 169.652C178.838 169.462 178.746 169.231 178.746 168.959C178.746 168.692 178.838 168.464 179.022 168.275C179.211 168.085 179.442 167.99 179.715 167.99C179.987 167.99 180.218 168.085 180.408 168.275C180.597 168.464 180.692 168.692 180.692 168.959C180.692 169.231 180.597 169.462 180.408 169.652C180.218 169.842 179.987 169.936 179.715 169.936Z" fill="white"/>
<path d="M179.715 169.936C179.442 169.936 179.211 169.842 179.022 169.652C178.838 169.462 178.746 169.231 178.746 168.959C178.746 168.692 178.838 168.464 179.022 168.275C179.211 168.085 179.442 167.99 179.715 167.99C179.987 167.99 180.218 168.085 180.408 168.275C180.597 168.464 180.692 168.692 180.692 168.959C180.692 169.231 180.597 169.462 180.408 169.652C180.218 169.842 179.987 169.936 179.715 169.936Z" fill="white"/>
<path d="M171.896 169.94C171.108 169.94 170.394 169.75 169.754 169.371C169.12 168.986 168.617 168.476 168.244 167.843C167.877 167.203 167.693 166.504 167.693 165.746H169.541C169.541 166.178 169.648 166.572 169.861 166.927C170.074 167.283 170.358 167.567 170.714 167.78C171.069 167.988 171.463 168.091 171.896 168.091C172.322 168.091 172.713 167.988 173.069 167.78C173.424 167.567 173.708 167.283 173.922 166.927C174.135 166.572 174.241 166.178 174.241 165.746C174.241 165.313 174.144 164.919 173.948 164.564C173.753 164.203 173.459 163.915 173.069 163.702C172.678 163.483 172.18 163.373 171.576 163.373H168.439L169.701 157.269H175.716V159.117H171.203L170.714 161.525L171.789 161.543C172.636 161.561 173.38 161.756 174.019 162.129C174.665 162.497 175.171 162.994 175.539 163.622C175.906 164.244 176.09 164.952 176.09 165.746C176.09 166.32 175.98 166.862 175.761 167.372C175.542 167.875 175.239 168.319 174.854 168.704C174.475 169.09 174.031 169.392 173.522 169.611C173.018 169.83 172.476 169.94 171.896 169.94Z" fill="white"/>
<path d="M171.896 169.94C171.108 169.94 170.394 169.75 169.754 169.371C169.12 168.986 168.617 168.476 168.244 167.843C167.877 167.203 167.693 166.504 167.693 165.746H169.541C169.541 166.178 169.648 166.572 169.861 166.927C170.074 167.283 170.358 167.567 170.714 167.78C171.069 167.988 171.463 168.091 171.896 168.091C172.322 168.091 172.713 167.988 173.069 167.78C173.424 167.567 173.708 167.283 173.922 166.927C174.135 166.572 174.241 166.178 174.241 165.746C174.241 165.313 174.144 164.919 173.948 164.564C173.753 164.203 173.459 163.915 173.069 163.702C172.678 163.483 172.18 163.373 171.576 163.373H168.439L169.701 157.269H175.716V159.117H171.203L170.714 161.525L171.789 161.543C172.636 161.561 173.38 161.756 174.019 162.129C174.665 162.497 175.171 162.994 175.539 163.622C175.906 164.244 176.09 164.952 176.09 165.746C176.09 166.32 175.98 166.862 175.761 167.372C175.542 167.875 175.239 168.319 174.854 168.704C174.475 169.09 174.031 169.392 173.522 169.611C173.018 169.83 172.476 169.94 171.896 169.94Z" fill="white"/>
<path d="M154.244 169.709L158.802 163.453L154.297 157.269H156.581L159.94 161.889L163.307 157.269H165.591L161.095 163.453L165.644 169.709H163.352L159.94 165.035L156.545 169.709H154.244Z" fill="white"/>
<path d="M154.244 169.709L158.802 163.453L154.297 157.269H156.581L159.94 161.889L163.307 157.269H165.591L161.095 163.453L165.644 169.709H163.352L159.94 165.035L156.545 169.709H154.244Z" fill="white"/>
<path d="M140.267 157.269H142.426L146.949 169.709H144.994L144.132 167.345H138.561L137.708 169.709H135.744L140.267 157.269ZM139.245 165.497H143.448L141.342 159.721L139.245 165.497Z" fill="white"/>
<path d="M140.267 157.269H142.426L146.949 169.709H144.994L144.132 167.345H138.561L137.708 169.709H135.744L140.267 157.269ZM139.245 165.497H143.448L141.342 159.721L139.245 165.497Z" fill="white"/>
<path d="M119.768 169.709L122.176 157.269H123.668L126.858 165.648L130.03 157.269H131.523L133.94 169.709H132.056L130.448 161.383L127.471 169.238H126.227L123.26 161.383L121.651 169.709H119.768Z" fill="white"/>
<path d="M119.768 169.709L122.176 157.269H123.668L126.858 165.648L130.03 157.269H131.523L133.94 169.709H132.056L130.448 161.383L127.471 169.238H126.227L123.26 161.383L121.651 169.709H119.768Z" fill="white"/>
<path d="M110.844 169.709V157.269H118.174V159.117H112.692V162.12H117.321V163.969H112.692V169.709H110.844Z" fill="white"/>
<path d="M110.844 169.709V157.269H118.174V159.117H112.692V162.12H117.321V163.969H112.692V169.709H110.844Z" fill="white"/>
<path d="M105.715 169.709V157.269H107.563V169.709H105.715Z" fill="white"/>
<path d="M105.715 169.709V157.269H107.563V169.709H105.715Z" fill="white"/>
<path d="M94.5737 169.709V157.269H98.9897C99.6295 157.269 100.207 157.399 100.722 157.66C101.244 157.921 101.655 158.297 101.957 158.788C102.265 159.274 102.419 159.858 102.419 160.539C102.419 160.871 102.366 161.196 102.26 161.516C102.153 161.836 102.002 162.117 101.806 162.36C101.611 162.603 101.374 162.775 101.096 162.876C101.475 162.97 101.789 163.142 102.037 163.391C102.292 163.634 102.494 163.918 102.642 164.244C102.79 164.57 102.893 164.907 102.953 165.257C103.018 165.606 103.05 165.938 103.05 166.252C103.05 166.916 102.89 167.508 102.571 168.029C102.251 168.55 101.821 168.962 101.282 169.264C100.749 169.56 100.16 169.709 99.514 169.709H94.5737ZM96.4219 168.109H99.3363C99.7154 168.109 100.059 168.014 100.367 167.825C100.681 167.635 100.93 167.375 101.113 167.043C101.297 166.705 101.389 166.326 101.389 165.906C101.389 165.538 101.297 165.192 101.113 164.866C100.93 164.534 100.681 164.268 100.367 164.066C100.059 163.865 99.7154 163.764 99.3363 163.764H96.4219V168.109ZM96.4219 162.192H98.7943C99.28 162.192 99.6976 162.043 100.047 161.747C100.397 161.451 100.571 161.045 100.571 160.53C100.571 159.979 100.397 159.567 100.047 159.295C99.6976 159.016 99.28 158.877 98.7943 158.877H96.4219V162.192Z" fill="white"/>
<path d="M94.5737 169.709V157.269H98.9897C99.6295 157.269 100.207 157.399 100.722 157.66C101.244 157.921 101.655 158.297 101.957 158.788C102.265 159.274 102.419 159.858 102.419 160.539C102.419 160.871 102.366 161.196 102.26 161.516C102.153 161.836 102.002 162.117 101.806 162.36C101.611 162.603 101.374 162.775 101.096 162.876C101.475 162.97 101.789 163.142 102.037 163.391C102.292 163.634 102.494 163.918 102.642 164.244C102.79 164.57 102.893 164.907 102.953 165.257C103.018 165.606 103.05 165.938 103.05 166.252C103.05 166.916 102.89 167.508 102.571 168.029C102.251 168.55 101.821 168.962 101.282 169.264C100.749 169.56 100.16 169.709 99.514 169.709H94.5737ZM96.4219 168.109H99.3363C99.7154 168.109 100.059 168.014 100.367 167.825C100.681 167.635 100.93 167.375 101.113 167.043C101.297 166.705 101.389 166.326 101.389 165.906C101.389 165.538 101.297 165.192 101.113 164.866C100.93 164.534 100.681 164.268 100.367 164.066C100.059 163.865 99.7154 163.764 99.3363 163.764H96.4219V168.109ZM96.4219 162.192H98.7943C99.28 162.192 99.6976 162.043 100.047 161.747C100.397 161.451 100.571 161.045 100.571 160.53C100.571 159.979 100.397 159.567 100.047 159.295C99.6976 159.016 99.28 158.877 98.7943 158.877H96.4219V162.192Z" fill="white"/>
<path d="M91.9047 157.269L88.3062 170.704H86.458L90.0566 157.269H91.9047Z" fill="white"/>
<path d="M91.9047 157.269L88.3062 170.704H86.458L90.0566 157.269H91.9047Z" fill="white"/>
<path d="M81.6724 169.709V157.269H83.5205V169.709H81.6724Z" fill="white"/>
<path d="M81.6724 169.709V157.269H83.5205V169.709H81.6724Z" fill="white"/>
<path d="M73.8864 169.939C73.2052 169.939 72.5506 169.833 71.9227 169.619C71.2948 169.406 70.7469 169.101 70.2789 168.704C69.811 168.301 69.4763 167.824 69.2749 167.274L71.0075 166.625C71.1082 166.909 71.3008 167.164 71.5851 167.389C71.8753 167.608 72.2189 167.78 72.6158 167.904C73.0186 168.029 73.4421 168.091 73.8864 168.091C74.3603 168.091 74.8046 168.014 75.2192 167.86C75.6398 167.706 75.9774 167.493 76.2321 167.22C76.4928 166.948 76.6231 166.628 76.6231 166.261C76.6231 165.882 76.4868 165.571 76.2144 165.328C75.9478 165.085 75.6042 164.892 75.1837 164.75C74.769 164.608 74.3366 164.501 73.8864 164.43C73.0156 164.288 72.2337 164.081 71.5407 163.808C70.8535 163.536 70.3086 163.154 69.9058 162.662C69.5089 162.17 69.3104 161.531 69.3104 160.743C69.3104 160.002 69.5207 159.357 69.9413 158.806C70.3678 158.255 70.9276 157.828 71.6206 157.526C72.3196 157.218 73.0749 157.064 73.8864 157.064C74.5558 157.064 75.2014 157.171 75.8234 157.384C76.4513 157.592 77.0022 157.897 77.4761 158.299C77.9559 158.696 78.2995 159.179 78.5068 159.748L76.7564 160.379C76.6557 160.088 76.4632 159.837 76.1788 159.623C75.8945 159.404 75.5509 159.232 75.1481 159.108C74.7512 158.984 74.3307 158.921 73.8864 158.921C73.4125 158.915 72.9682 158.992 72.5536 159.152C72.1449 159.306 71.8102 159.52 71.5496 159.792C71.2889 160.065 71.1586 160.382 71.1586 160.743C71.1586 161.187 71.28 161.525 71.5229 161.756C71.7658 161.987 72.0916 162.159 72.5003 162.271C72.9149 162.378 73.377 162.476 73.8864 162.564C74.7039 162.695 75.4591 162.911 76.1522 163.213C76.8511 163.515 77.4109 163.918 77.8315 164.421C78.258 164.919 78.4712 165.532 78.4712 166.261C78.4712 166.995 78.258 167.641 77.8315 168.198C77.4109 168.749 76.8511 169.178 76.1522 169.486C75.4591 169.788 74.7039 169.939 73.8864 169.939Z" fill="white"/>
<path d="M73.8864 169.939C73.2052 169.939 72.5506 169.833 71.9227 169.619C71.2948 169.406 70.7469 169.101 70.2789 168.704C69.811 168.301 69.4763 167.824 69.2749 167.274L71.0075 166.625C71.1082 166.909 71.3008 167.164 71.5851 167.389C71.8753 167.608 72.2189 167.78 72.6158 167.904C73.0186 168.029 73.4421 168.091 73.8864 168.091C74.3603 168.091 74.8046 168.014 75.2192 167.86C75.6398 167.706 75.9774 167.493 76.2321 167.22C76.4928 166.948 76.6231 166.628 76.6231 166.261C76.6231 165.882 76.4868 165.571 76.2144 165.328C75.9478 165.085 75.6042 164.892 75.1837 164.75C74.769 164.608 74.3366 164.501 73.8864 164.43C73.0156 164.288 72.2337 164.081 71.5407 163.808C70.8535 163.536 70.3086 163.154 69.9058 162.662C69.5089 162.17 69.3104 161.531 69.3104 160.743C69.3104 160.002 69.5207 159.357 69.9413 158.806C70.3678 158.255 70.9276 157.828 71.6206 157.526C72.3196 157.218 73.0749 157.064 73.8864 157.064C74.5558 157.064 75.2014 157.171 75.8234 157.384C76.4513 157.592 77.0022 157.897 77.4761 158.299C77.9559 158.696 78.2995 159.179 78.5068 159.748L76.7564 160.379C76.6557 160.088 76.4632 159.837 76.1788 159.623C75.8945 159.404 75.5509 159.232 75.1481 159.108C74.7512 158.984 74.3307 158.921 73.8864 158.921C73.4125 158.915 72.9682 158.992 72.5536 159.152C72.1449 159.306 71.8102 159.52 71.5496 159.792C71.2889 160.065 71.1586 160.382 71.1586 160.743C71.1586 161.187 71.28 161.525 71.5229 161.756C71.7658 161.987 72.0916 162.159 72.5003 162.271C72.9149 162.378 73.377 162.476 73.8864 162.564C74.7039 162.695 75.4591 162.911 76.1522 163.213C76.8511 163.515 77.4109 163.918 77.8315 164.421C78.258 164.919 78.4712 165.532 78.4712 166.261C78.4712 166.995 78.258 167.641 77.8315 168.198C77.4109 168.749 76.8511 169.178 76.1522 169.486C75.4591 169.788 74.7039 169.939 73.8864 169.939Z" fill="white"/>
<path d="M56.8774 169.709V157.269H58.8766L64.5899 166.368V157.269H66.4381V169.709H64.4389L58.7256 160.61V169.709H56.8774Z" fill="white"/>
<path d="M56.8774 169.709V157.269H58.8766L64.5899 166.368V157.269H66.4381V169.709H64.4389L58.7256 160.61V169.709H56.8774Z" fill="white"/>
<path d="M47.7189 157.269H49.8781L54.4007 169.709H52.4459L51.5841 167.345H46.0129L45.16 169.709H43.1963L47.7189 157.269ZM46.6971 165.497H50.8999L48.7941 159.721L46.6971 165.497Z" fill="white"/>
<path d="M47.7189 157.269H49.8781L54.4007 169.709H52.4459L51.5841 167.345H46.0129L45.16 169.709H43.1963L47.7189 157.269ZM46.6971 165.497H50.8999L48.7941 159.721L46.6971 165.497Z" fill="white"/>
<path d="M190.334 203.93V187.403H195.812C196.953 187.403 198.019 187.62 199.011 188.052C200.01 188.477 200.888 189.072 201.643 189.835C202.407 190.591 203.001 191.468 203.426 192.468C203.859 193.459 204.075 194.526 204.075 195.667C204.075 196.808 203.859 197.878 203.426 198.878C203.001 199.869 202.407 200.747 201.643 201.51C200.888 202.266 200.01 202.86 199.011 203.293C198.019 203.718 196.953 203.93 195.812 203.93H190.334ZM193.592 200.672H195.812C196.488 200.672 197.126 200.542 197.724 200.283C198.33 200.023 198.865 199.665 199.33 199.208C199.794 198.752 200.156 198.221 200.416 197.615C200.683 197.009 200.817 196.359 200.817 195.667C200.817 194.974 200.683 194.329 200.416 193.731C200.156 193.125 199.794 192.593 199.33 192.137C198.873 191.673 198.342 191.311 197.736 191.051C197.138 190.791 196.496 190.661 195.812 190.661H193.592V200.672Z" fill="white"/>
<path d="M190.334 203.93V187.403H195.812C196.953 187.403 198.019 187.62 199.011 188.052C200.01 188.477 200.888 189.072 201.643 189.835C202.407 190.591 203.001 191.468 203.426 192.468C203.859 193.459 204.075 194.526 204.075 195.667C204.075 196.808 203.859 197.878 203.426 198.878C203.001 199.869 202.407 200.747 201.643 201.51C200.888 202.266 200.01 202.86 199.011 203.293C198.019 203.718 196.953 203.93 195.812 203.93H190.334ZM193.592 200.672H195.812C196.488 200.672 197.126 200.542 197.724 200.283C198.33 200.023 198.865 199.665 199.33 199.208C199.794 198.752 200.156 198.221 200.416 197.615C200.683 197.009 200.817 196.359 200.817 195.667C200.817 194.974 200.683 194.329 200.416 193.731C200.156 193.125 199.794 192.593 199.33 192.137C198.873 191.673 198.342 191.311 197.736 191.051C197.138 190.791 196.496 190.661 195.812 190.661H193.592V200.672Z" fill="white"/>
<path d="M176.089 203.93V187.403H186.548V190.661H179.347V193.447H184.966V196.706H179.347V200.672H186.548V203.93H176.089Z" fill="white"/>
<path d="M176.089 203.93V187.403H186.548V190.661H179.347V193.447H184.966V196.706H179.347V200.672H186.548V203.93H176.089Z" fill="white"/>
<path d="M168.46 203.93V187.403H171.718V203.93H168.46Z" fill="white"/>
<path d="M168.46 203.93V187.403H171.718V203.93H168.46Z" fill="white"/>
<path d="M155.437 203.93V187.403H165.235V190.661H158.695V193.447H164.102V196.706H158.695V203.93H155.437Z" fill="white"/>
<path d="M155.437 203.93V187.403H165.235V190.661H158.695V193.447H164.102V196.706H158.695V203.93H155.437Z" fill="white"/>
<path d="M147.808 203.93V187.403H151.066V203.93H147.808Z" fill="white"/>
<path d="M147.808 203.93V187.403H151.066V203.93H147.808Z" fill="white"/>
<path d="M143.921 187.403V190.661H139.057V203.93H135.799V190.661H130.935V187.403H143.921Z" fill="white"/>
<path d="M143.921 187.403V190.661H139.057V203.93H135.799V190.661H130.935V187.403H143.921Z" fill="white"/>
<path d="M116.214 203.93V187.403H122.778C123.675 187.403 124.485 187.631 125.21 188.088C125.941 188.536 126.52 189.142 126.945 189.906C127.378 190.661 127.594 191.5 127.594 192.42C127.594 193.144 127.468 193.817 127.216 194.439C126.965 195.053 126.61 195.592 126.154 196.056C125.697 196.521 125.166 196.883 124.56 197.142L128.491 203.93H124.737L120.971 197.438H119.472V203.93H116.214ZM119.472 194.179H122.388C122.742 194.179 123.065 194.093 123.356 193.92C123.655 193.739 123.891 193.499 124.064 193.199C124.245 192.893 124.336 192.554 124.336 192.184C124.336 191.822 124.245 191.492 124.064 191.193C123.891 190.886 123.655 190.642 123.356 190.461C123.065 190.28 122.742 190.189 122.388 190.189H119.472V194.179Z" fill="white"/>
<path d="M116.214 203.93V187.403H122.778C123.675 187.403 124.485 187.631 125.21 188.088C125.941 188.536 126.52 189.142 126.945 189.906C127.378 190.661 127.594 191.5 127.594 192.42C127.594 193.144 127.468 193.817 127.216 194.439C126.965 195.053 126.61 195.592 126.154 196.056C125.697 196.521 125.166 196.883 124.56 197.142L128.491 203.93H124.737L120.971 197.438H119.472V203.93H116.214ZM119.472 194.179H122.388C122.742 194.179 123.065 194.093 123.356 193.92C123.655 193.739 123.891 193.499 124.064 193.199C124.245 192.893 124.336 192.554 124.336 192.184C124.336 191.822 124.245 191.492 124.064 191.193C123.891 190.886 123.655 190.642 123.356 190.461C123.065 190.28 122.742 190.189 122.388 190.189H119.472V194.179Z" fill="white"/>
<path d="M101.957 203.93V187.403H112.417V190.661H105.215V193.447H110.835V196.706H105.215V200.672H112.417V203.93H101.957Z" fill="white"/>
<path d="M101.957 203.93V187.403H112.417V190.661H105.215V193.447H110.835V196.706H105.215V200.672H112.417V203.93H101.957Z" fill="white"/>
<path d="M92.0996 204.235C90.982 204.235 89.9313 204.014 88.9476 203.573C87.9638 203.125 87.0981 202.507 86.3504 201.72C85.6106 200.933 85.0282 200.024 84.6032 198.993C84.1861 197.954 83.9775 196.844 83.9775 195.664C83.9775 194.476 84.1861 193.366 84.6032 192.335C85.0282 191.296 85.6106 190.387 86.3504 189.608C87.0981 188.821 87.9638 188.207 88.9476 187.766C89.9313 187.318 90.982 187.093 92.0996 187.093C93.4375 187.093 94.6692 187.404 95.7946 188.026C96.9201 188.64 97.8527 189.462 98.5925 190.493L95.6884 192.063C95.2477 191.544 94.7164 191.131 94.0947 190.824C93.4729 190.509 92.8079 190.352 92.0996 190.352C91.4306 190.352 90.801 190.489 90.2107 190.765C89.6205 191.04 89.101 191.422 88.6524 191.91C88.2117 192.398 87.8654 192.96 87.6136 193.598C87.3617 194.235 87.2358 194.924 87.2358 195.664C87.2358 196.396 87.3617 197.084 87.6136 197.73C87.8654 198.367 88.2117 198.93 88.6524 199.418C89.101 199.898 89.6205 200.28 90.2107 200.563C90.801 200.839 91.4306 200.976 92.0996 200.976C92.8158 200.976 93.4808 200.819 94.0947 200.504C94.7164 200.189 95.2477 199.772 95.6884 199.253L98.5925 200.835C97.8527 201.858 96.9201 202.68 95.7946 203.302C94.6692 203.924 93.4375 204.235 92.0996 204.235Z" fill="white"/>
<path d="M92.0996 204.235C90.982 204.235 89.9313 204.014 88.9476 203.573C87.9638 203.125 87.0981 202.507 86.3504 201.72C85.6106 200.933 85.0282 200.024 84.6032 198.993C84.1861 197.954 83.9775 196.844 83.9775 195.664C83.9775 194.476 84.1861 193.366 84.6032 192.335C85.0282 191.296 85.6106 190.387 86.3504 189.608C87.0981 188.821 87.9638 188.207 88.9476 187.766C89.9313 187.318 90.982 187.093 92.0996 187.093C93.4375 187.093 94.6692 187.404 95.7946 188.026C96.9201 188.64 97.8527 189.462 98.5925 190.493L95.6884 192.063C95.2477 191.544 94.7164 191.131 94.0947 190.824C93.4729 190.509 92.8079 190.352 92.0996 190.352C91.4306 190.352 90.801 190.489 90.2107 190.765C89.6205 191.04 89.101 191.422 88.6524 191.91C88.2117 192.398 87.8654 192.96 87.6136 193.598C87.3617 194.235 87.2358 194.924 87.2358 195.664C87.2358 196.396 87.3617 197.084 87.6136 197.73C87.8654 198.367 88.2117 198.93 88.6524 199.418C89.101 199.898 89.6205 200.28 90.2107 200.563C90.801 200.839 91.4306 200.976 92.0996 200.976C92.8158 200.976 93.4808 200.819 94.0947 200.504C94.7164 200.189 95.2477 199.772 95.6884 199.253L98.5925 200.835C97.8527 201.858 96.9201 202.68 95.7946 203.302C94.6692 203.924 93.4375 204.235 92.0996 204.235Z" fill="white"/>
<path d="M214.858 126.288L217.708 113.48H218.265C218.56 115.249 218.822 117.083 219.28 118.885L221.115 126.288M226.454 99.5251H209.191L196.809 134.313L190.945 99.5251H175.058L170.21 116.002C169.686 117.771 169.424 119.736 169.129 121.571H168.736L162.807 99.5251H146.756L139.812 141.487H154.913L156.747 123.569C156.911 121.898 157.042 120.162 157.14 118.491H157.664C157.762 120.26 158.188 121.931 158.647 123.733L164.216 141.487H173.322L179.513 122.684C179.972 121.341 180.267 119.9 180.529 118.524H180.823L182.92 141.487H210.763L212.008 136.246H223.801L225.209 141.487H241.784L226.454 99.5251Z" fill="white"/>
<path d="M214.858 126.288L217.708 113.48H218.265C218.56 115.249 218.822 117.083 219.28 118.885L221.115 126.288M226.454 99.5251H209.191L196.809 134.313L190.945 99.5251H175.058L170.21 116.002C169.686 117.771 169.424 119.736 169.129 121.571H168.736L162.807 99.5251H146.756L139.812 141.487H154.913L156.747 123.569C156.911 121.898 157.042 120.162 157.14 118.491H157.664C157.762 120.26 158.188 121.931 158.647 123.733L164.216 141.487H173.322L179.513 122.684C179.972 121.341 180.267 119.9 180.529 118.524H180.823L182.92 141.487H210.763L212.008 136.246H223.801L225.209 141.487H241.784L226.454 99.5251Z" fill="white"/>
<path d="M110.175 141.487H125.899V126.779H137.331V115.904H125.899V111.547H138.936V99.5251H110.175" fill="white"/>
<path d="M110.175 141.487H125.899V126.779H137.331V115.904H125.899V111.547H138.936V99.5251H110.175" fill="white"/>
<path d="M102.947 99.5251H87.355V141.487H102.947V99.5251Z" fill="white"/>
<path d="M102.947 99.5251H87.355V141.487H102.947V99.5251Z" fill="white"/>
<path d="M61.4364 131.453H59.6676V124.508H61.2071C63.6967 124.508 67.693 124.443 67.693 127.948C67.693 131.42 63.9915 131.453 61.4364 131.453ZM59.6676 109.636H60.7485C63.0088 109.636 65.9242 109.407 65.9242 112.519C65.9242 115.402 63.3691 115.631 61.0761 115.631H59.6676V109.636ZM74.5393 119.955V119.627C78.3063 118.448 80.1735 114.845 80.1735 111.176C80.1735 101.48 71.6894 99.5472 63.3691 99.5472H45.2217V141.509H66.4483C73.9496 141.509 82.1717 138.561 82.1717 129.946C82.1717 124.901 79.1908 121.56 74.5393 119.955Z" fill="white"/>
<path d="M61.4364 131.453H59.6676V124.508H61.2071C63.6967 124.508 67.693 124.443 67.693 127.948C67.693 131.42 63.9915 131.453 61.4364 131.453ZM59.6676 109.636H60.7485C63.0088 109.636 65.9242 109.407 65.9242 112.519C65.9242 115.402 63.3691 115.631 61.0761 115.631H59.6676V109.636ZM74.5393 119.955V119.627C78.3063 118.448 80.1735 114.845 80.1735 111.176C80.1735 101.48 71.6894 99.5472 63.3691 99.5472H45.2217V141.509H66.4483C73.9496 141.509 82.1717 138.561 82.1717 129.946C82.1717 124.901 79.1908 121.56 74.5393 119.955Z" fill="white"/>
</g>
<defs>
<filter id="filter0_d_15700_31405" x="0" y="0" width="287" height="287" filterUnits="userSpaceOnUse" color-interpolation-filters="sRGB">
<feFlood flood-opacity="0" result="BackgroundImageFix"/>
<feColorMatrix in="SourceAlpha" type="matrix" values="0 0 0 0 0 0 0 0 0 0 0 0 0 0 0 0 0 0 127 0" result="hardAlpha"/>
<feOffset dy="4"/>
<feGaussianBlur stdDeviation="2"/>
<feComposite in2="hardAlpha" operator="out"/>
<feColorMatrix type="matrix" values="0 0 0 0 0 0 0 0 0 0 0 0 0 0 0 0 0 0 0.25 0"/>
<feBlend mode="normal" in2="BackgroundImageFix" result="effect1_dropShadow_15700_31405"/>
<feBlend mode="normal" in="SourceGraphic" in2="effect1_dropShadow_15700_31405" result="shape"/>
</filter>
</defs>
</svg>
