<svg width="3840" height="1672" viewBox="0 0 3840 1672" fill="none" xmlns="http://www.w3.org/2000/svg">
<g clip-path="url(#clip0_15471_29)">
<g filter="url(#filter0_f_15471_29)">
<path d="M1920 494.579C2220.82 494.579 2786.89 1018.07 3120.78 1228.97C3181.52 1267.33 3252.91 1283.04 3324.75 1283.04H4583.12C4842.7 1283.04 5053.12 1493.47 5053.12 1753.04V1794.73C5053.12 2054.3 4842.7 2264.73 4583.12 2264.73H-743.125C-1002.7 2264.73 -1213.12 2054.3 -1213.12 1794.73V1753.04C-1213.12 1493.47 -1002.7 1283.04 -743.125 1283.04H476.648C575.979 1283.04 672.879 1251.8 752.002 1191.75C1142.28 895.541 1620.56 494.579 1920 494.579Z" fill="#EDE7F8"/>
</g>
</g>
<defs>
<filter id="filter0_f_15471_29" x="-1454.12" y="253.579" width="6748.25" height="2252.15" filterUnits="userSpaceOnUse" color-interpolation-filters="sRGB">
<feFlood flood-opacity="0" result="BackgroundImageFix"/>
<feBlend mode="normal" in="SourceGraphic" in2="BackgroundImageFix" result="shape"/>
<feGaussianBlur stdDeviation="120.5" result="effect1_foregroundBlur_15471_29"/>
</filter>
<clipPath id="clip0_15471_29">
<rect width="3840" height="1672" fill="white"/>
</clipPath>
</defs>
</svg>
