<?xml version="1.0" encoding="UTF-8"?>
<svg id="Camada_1" data-name="Camada 1" xmlns="http://www.w3.org/2000/svg" viewBox="185 1027 2130 447">
  <defs>
    <style>
      .cls-1 {
        fill: #968ec3;
      }

      .cls-2 {
        fill: #f5f5f5;
      }
    </style>
  </defs>
  <path class="cls-1" d="M722.79,1473.5c-164.6,0-298.51-100.26-298.51-223.5s133.91-223.5,298.51-223.5,298.51,100.26,298.51,223.5-133.91,223.5-298.51,223.5ZM722.79,1036.59c-159.04,0-288.42,95.74-288.42,213.41s129.38,213.41,288.42,213.41,288.42-95.73,288.42-213.41-129.38-213.41-288.42-213.41Z"/>
  <path class="cls-1" d="M718.1,1473.5c-205.96,0-373.52-100.26-373.52-223.5s167.56-223.5,373.52-223.5,373.51,100.26,373.51,223.5-167.56,223.5-373.51,223.5ZM718.1,1036.59c-200.4,0-363.43,95.74-363.43,213.41s163.03,213.41,363.43,213.41,363.42-95.73,363.42-213.41-163.03-213.41-363.42-213.41Z"/>
  <path class="cls-1" d="M715.76,1473.5c-248.61,0-450.87-100.26-450.87-223.5s202.26-223.5,450.87-223.5,450.86,100.26,450.86,223.5-202.26,223.5-450.86,223.5ZM715.76,1036.59c-243.05,0-440.78,95.74-440.78,213.41s197.73,213.41,440.78,213.41,440.77-95.73,440.77-213.41-197.73-213.41-440.77-213.41Z"/>
  <path class="cls-1" d="M715.76,1473.5c-292.56,0-530.56-100.26-530.56-223.5s238.01-223.5,530.56-223.5,530.56,100.26,530.56,223.5-238.01,223.5-530.56,223.5ZM715.76,1036.59c-286.99,0-520.47,95.74-520.47,213.41s233.48,213.41,520.47,213.41,520.47-95.73,520.47-213.41-233.48-213.41-520.47-213.41Z"/>
  <g>
    <path class="cls-2" d="M1359.12,1298.74c-6.92,0-13.56-1.09-19.92-3.27-6.35-2.18-11.92-5.31-16.69-9.4-4.78-4.09-8.21-8.99-10.29-14.72l20.5-7.52c.84,2.38,2.54,4.57,5.1,6.53,2.57,1.97,5.7,3.55,9.4,4.74,3.69,1.2,7.66,1.79,11.9,1.79s8.42-.67,12.22-2.02c3.78-1.34,6.85-3.22,9.17-5.64,2.33-2.42,3.49-5.24,3.49-8.46s-1.22-5.98-3.67-8.1c-2.44-2.12-5.58-3.81-9.39-5.06-3.82-1.25-7.76-2.21-11.81-2.86-8.9-1.37-16.86-3.5-23.9-6.36-7.04-2.86-12.61-6.83-16.69-11.9-4.09-5.07-6.13-11.63-6.13-19.69,0-7.57,2.17-14.2,6.53-19.87,4.36-5.66,10.08-10.08,17.19-13.24,7.1-3.16,14.77-4.74,23.01-4.74,6.86,0,13.48,1.07,19.87,3.22,6.39,2.15,11.98,5.28,16.78,9.4,4.81,4.12,8.25,9.07,10.34,14.86l-20.58,7.42c-.83-2.38-2.54-4.56-5.1-6.53-2.56-1.97-5.7-3.53-9.39-4.7-3.71-1.17-7.67-1.75-11.9-1.75-4.24-.06-8.25.61-12.04,2.01-3.79,1.41-6.88,3.3-9.26,5.69-2.38,2.38-3.58,5.13-3.58,8.23,0,4,1.12,7.01,3.36,9.04,2.24,2.03,5.24,3.51,8.99,4.43,3.76.92,7.94,1.77,12.53,2.55,8.35,1.31,16.08,3.52,23.18,6.62,7.1,3.1,12.8,7.23,17.09,12.4,4.3,5.16,6.45,11.47,6.45,18.93s-2.15,14.22-6.45,19.91c-4.3,5.7-9.99,10.13-17.09,13.29-7.1,3.16-14.83,4.74-23.18,4.74Z"/>
    <path class="cls-2" d="M1423.83,1296.42v-89.5h21.84v7.96c3.05-3.22,6.69-5.77,10.92-7.65,4.24-1.88,8.8-2.82,13.7-2.82,6.21,0,11.92,1.47,17.14,4.39,5.22,2.92,9.38,6.83,12.48,11.73,3.17-4.89,7.34-8.8,12.53-11.73,5.19-2.92,10.89-4.39,17.09-4.39,6.57,0,12.52,1.6,17.86,4.79,5.34,3.19,9.6,7.46,12.8,12.8,3.19,5.34,4.8,11.29,4.8,17.86v56.57h-21.84v-50.75c0-3.46-.85-6.64-2.55-9.53-1.7-2.89-3.97-5.22-6.8-6.98-2.84-1.75-6.02-2.64-9.54-2.64s-6.7.85-9.53,2.56c-2.84,1.7-5.12,3.98-6.85,6.85s-2.59,6.12-2.59,9.76v50.75h-21.84v-50.75c0-3.64-.84-6.89-2.51-9.76-1.67-2.86-3.94-5.14-6.8-6.85s-6.06-2.56-9.58-2.56-6.62.89-9.49,2.64c-2.86,1.76-5.14,4.09-6.85,6.98-1.69,2.9-2.55,6.07-2.55,9.53v50.75h-21.84Z"/>
    <path class="cls-2" d="M1648.76,1206.91h21.84v89.5h-21.84l-.99-11.1c-2.45,3.99-5.69,7.23-9.71,9.71-4.03,2.48-8.79,3.71-14.28,3.71-6.62,0-12.82-1.25-18.62-3.76-5.78-2.5-10.87-5.97-15.25-10.38-4.39-4.41-7.82-9.52-10.29-15.31-2.48-5.79-3.71-12-3.71-18.62s1.17-12.38,3.53-17.99c2.35-5.6,5.65-10.53,9.89-14.77,4.24-4.23,9.13-7.54,14.68-9.93,5.54-2.38,11.51-3.58,17.9-3.58,5.91,0,11.21,1.31,15.89,3.94,4.69,2.62,8.67,5.97,11.96,10.03l-.99-11.46ZM1623.24,1277.71c4.66,0,8.78-1.17,12.36-3.5,3.58-2.33,6.38-5.47,8.42-9.44,2.02-3.97,3.04-8.34,3.04-13.11s-1.02-9.24-3.04-13.2c-2.04-3.97-4.85-7.11-8.46-9.44-3.61-2.33-7.71-3.49-12.31-3.49s-8.78,1.18-12.57,3.53c-3.78,2.36-6.8,5.51-9.04,9.44-2.23,3.94-3.35,8.32-3.35,13.16s1.13,9.22,3.4,13.16c2.26,3.94,5.29,7.07,9.08,9.39,3.79,2.33,7.95,3.5,12.48,3.5Z"/>
    <path class="cls-2" d="M1688.58,1296.42l-.09-89.5h21.84l.09,7.96c3.05-3.22,6.69-5.77,10.92-7.65,4.24-1.88,8.8-2.82,13.7-2.82,3.28,0,6.56.48,9.85,1.43l-8.59,22.02c-2.27-.89-4.53-1.35-6.81-1.35-3.52,0-6.73.85-9.62,2.56-2.9,1.7-5.19,3.99-6.9,6.89-1.69,2.89-2.55,6.1-2.55,9.62v50.84h-21.84Z"/>
    <path class="cls-2" d="M1805.39,1228.75h-17.36v67.67h-21.84v-67.67h-13.24v-21.84h13.24v-28.1h21.84v28.1h17.36v21.84Z"/>
    <path class="cls-2" d="M1821.5,1296.42v-125.31h74.02v21.84h-52.18v25.42h43.6v21.84h-43.6v56.21h-21.84Z"/>
    <path class="cls-2" d="M1940.99,1298.74c-8.24,0-15.74-2.12-22.51-6.35-6.78-4.24-12.18-9.92-16.2-17.05-4.03-7.13-6.04-15.02-6.04-23.67,0-6.56,1.16-12.69,3.5-18.39,2.33-5.7,5.53-10.71,9.62-15.04,4.09-4.32,8.84-7.71,14.28-10.16,5.43-2.45,11.21-3.67,17.36-3.67,8.24,0,15.74,2.12,22.51,6.36,6.78,4.24,12.18,9.93,16.2,17.09,4.03,7.16,6.04,15.1,6.04,23.81,0,6.5-1.16,12.59-3.49,18.26-2.33,5.67-5.54,10.67-9.62,14.99-4.09,4.33-8.83,7.71-14.23,10.16-5.4,2.44-11.21,3.67-17.41,3.67ZM1940.99,1276.91c4.36,0,8.26-1.16,11.73-3.49,3.46-2.33,6.19-5.4,8.19-9.22,2-3.82,3-8,3-12.53s-1.02-8.91-3.09-12.76c-2.06-3.84-4.84-6.92-8.32-9.22-3.49-2.29-7.33-3.44-11.5-3.44s-8.17,1.16-11.63,3.49-6.21,5.43-8.23,9.31c-2.04,3.88-3.05,8.09-3.05,12.62s1.04,8.98,3.13,12.8,4.88,6.85,8.37,9.09c3.49,2.24,7.3,3.36,11.41,3.36Z"/>
    <path class="cls-2" d="M2067.73,1206.91h21.84v89.5h-21.84l-.99-11.1c-2.44,3.99-5.68,7.23-9.71,9.71-4.03,2.48-8.79,3.71-14.28,3.71-6.62,0-12.83-1.25-18.62-3.76-5.79-2.5-10.87-5.97-15.26-10.38-4.39-4.41-7.82-9.52-10.29-15.31-2.48-5.79-3.72-12-3.72-18.62s1.18-12.38,3.53-17.99c2.36-5.6,5.65-10.53,9.89-14.77,4.23-4.23,9.13-7.54,14.68-9.93,5.54-2.38,11.52-3.58,17.9-3.58,5.91,0,11.2,1.31,15.89,3.94,4.68,2.62,8.67,5.97,11.95,10.03l-.99-11.46ZM2042.22,1277.71c4.66,0,8.77-1.17,12.36-3.5,3.57-2.33,6.38-5.47,8.41-9.44,2.02-3.97,3.05-8.34,3.05-13.11s-1.02-9.24-3.05-13.2c-2.03-3.97-4.85-7.11-8.46-9.44-3.61-2.33-7.71-3.49-12.3-3.49s-8.78,1.18-12.57,3.53-6.8,5.51-9.04,9.44c-2.24,3.94-3.36,8.32-3.36,13.16s1.13,9.22,3.4,13.16c2.27,3.94,5.3,7.07,9.08,9.39,3.8,2.33,7.96,3.5,12.49,3.5Z"/>
    <path class="cls-2" d="M2107.46,1296.42v-89.5h21.84v7.96c3.04-3.22,6.67-5.77,10.92-7.65,4.23-1.88,8.8-2.82,13.69-2.82,6.2,0,11.92,1.47,17.14,4.39,5.22,2.92,9.38,6.83,12.49,11.73,3.16-4.89,7.34-8.8,12.53-11.73,5.19-2.92,10.89-4.39,17.09-4.39,6.56,0,12.51,1.6,17.86,4.79,5.33,3.19,9.6,7.46,12.8,12.8,3.19,5.34,4.78,11.29,4.78,17.86v56.57h-21.84v-50.75c0-3.46-.85-6.64-2.55-9.53-1.7-2.89-3.97-5.22-6.81-6.98-2.83-1.75-6.01-2.64-9.53-2.64s-6.7.85-9.54,2.56c-2.83,1.7-5.11,3.98-6.85,6.85s-2.59,6.12-2.59,9.76v50.75h-21.84v-50.75c0-3.64-.83-6.89-2.5-9.76-1.67-2.86-3.94-5.14-6.8-6.85s-6.06-2.56-9.58-2.56-6.62.89-9.49,2.64c-2.86,1.76-5.15,4.09-6.85,6.98-1.71,2.9-2.55,6.07-2.55,9.53v50.75h-21.84Z"/>
  </g>
  <g>
    <path class="cls-2" d="M2275.37,1180.5v5.56h-9.74v26.32h-5.56v-26.32h-9.75v-5.56h25.05Z"/>
    <path class="cls-2" d="M2277.69,1212.38l6.2-31.88h4.6l7.77,20.42,7.77-20.42h4.6l6.19,31.88h-5.66l-3.83-19.72-7.17,18.99h-3.8l-7.17-18.99-3.8,19.72h-5.68Z"/>
  </g>
</svg>