<?xml version="1.0" encoding="UTF-8"?>
<svg id="Camada_1" data-name="Camada 1" xmlns="http://www.w3.org/2000/svg" viewBox="180 800 2139 900">
  <defs>
    <style>
      .cls-1 {
        fill: #968ec3;
      }
    </style>
  </defs>
  <path class="cls-1" d="M1264.18,1700.16c-331.66,0-601.48-201.95-601.48-450.17s269.82-450.16,601.48-450.16,601.48,201.93,601.48,450.16-269.82,450.17-601.48,450.17ZM1264.18,818.73c-321.24,0-582.59,193.46-582.59,431.26s261.35,431.27,582.59,431.27,582.59-193.47,582.59-431.27-261.35-431.26-582.59-431.26Z"/>
  <path class="cls-1" d="M1254.74,1700.16c-415.1,0-752.81-201.95-752.81-450.17s337.71-450.16,752.81-450.16,752.8,201.93,752.8,450.16-337.7,450.17-752.8,450.17ZM1254.74,818.73c-404.68,0-733.92,193.46-733.92,431.26s329.24,431.27,733.92,431.27,733.9-193.47,733.9-431.27-329.23-431.26-733.9-431.26Z"/>
  <path class="cls-1" d="M1250,1700.16c-501.14,0-908.85-201.95-908.85-450.17s407.71-450.16,908.85-450.16,908.86,201.93,908.86,450.16-407.72,450.17-908.86,450.17ZM1250,818.73c-490.73,0-889.96,193.46-889.96,431.26s399.23,431.27,889.96,431.27,889.97-193.47,889.97-431.27-399.24-431.26-889.97-431.26Z"/>
  <path class="cls-1" d="M1250,1700.16c-589.8,0-1069.64-201.95-1069.64-450.17s479.84-450.16,1069.64-450.16,1069.64,201.93,1069.64,450.16-479.84,450.17-1069.64,450.17ZM1250,818.73c-579.38,0-1050.74,193.46-1050.74,431.26s471.36,431.27,1050.74,431.27,1050.74-193.47,1050.74-431.27-471.36-431.26-1050.74-431.26Z"/>
</svg>