<?xml version="1.0" encoding="UTF-8"?>
<svg id="Camada_1" data-name="Camada 1" xmlns="http://www.w3.org/2000/svg" viewBox="267 1123 1966 254">
  <defs>
    <style>
      .cls-1 {
        fill: #f5f5f5;
      }
    </style>
  </defs>
  <g>
    <path class="cls-1" d="M358.86,1377c-13.55,0-26.54-2.13-38.98-6.39-12.44-4.27-23.32-10.39-32.67-18.39-9.35-8-16.06-17.6-20.14-28.82l40.11-14.71c1.64,4.67,4.97,8.93,9.99,12.79,5.02,3.85,11.15,6.95,18.39,9.28,7.24,2.34,15.01,3.51,23.3,3.51s16.49-1.32,23.91-3.94c7.41-2.63,13.4-6.3,17.95-11.03,4.55-4.73,6.83-10.25,6.83-16.56s-2.4-11.7-7.18-15.85c-4.79-4.14-10.92-7.44-18.39-9.9-7.48-2.45-15.18-4.32-23.12-5.6-17.4-2.68-32.99-6.83-46.77-12.44-13.78-5.61-24.67-13.37-32.67-23.3-8-9.93-11.99-22.77-11.99-38.54,0-14.83,4.27-27.79,12.79-38.89,8.52-11.1,19.73-19.74,33.63-25.93,13.9-6.19,28.91-9.29,45.03-9.29,13.42,0,26.39,2.1,38.89,6.31,12.49,4.2,23.44,10.33,32.85,18.39,9.4,8.06,16.14,17.75,20.23,29.08l-40.29,14.54c-1.64-4.67-4.97-8.93-9.98-12.79-5.02-3.85-11.16-6.92-18.39-9.2-7.24-2.28-15.01-3.41-23.3-3.41-8.29-.11-16.14,1.2-23.56,3.94-7.42,2.75-13.47,6.45-18.13,11.13-4.67,4.67-7.01,10.04-7.01,16.12,0,7.82,2.19,13.73,6.57,17.69,4.38,3.97,10.25,6.86,17.6,8.67,7.36,1.81,15.54,3.48,24.53,4.99,16.34,2.58,31.47,6.9,45.37,12.97,13.9,6.08,25.05,14.16,33.45,24.26,8.41,10.1,12.62,22.46,12.62,37.05s-4.21,27.83-12.62,38.98c-8.41,11.16-19.56,19.82-33.45,26.01s-29.03,9.28-45.37,9.28Z"/>
    <path class="cls-1" d="M485.51,1372.45v-175.18h42.74v15.59c5.95-6.3,13.08-11.3,21.37-14.98,8.29-3.68,17.23-5.52,26.81-5.52,12.14,0,23.33,2.86,33.55,8.58,10.22,5.72,18.36,13.37,24.43,22.95,6.19-9.57,14.37-17.22,24.53-22.95,10.15-5.72,21.31-8.58,33.45-8.58,12.85,0,24.5,3.13,34.94,9.37,10.45,6.25,18.81,14.61,25.05,25.05,6.25,10.46,9.37,22.1,9.37,34.94v110.71h-42.74v-99.32c0-6.78-1.67-13-4.99-18.66-3.33-5.67-7.77-10.22-13.31-13.67-5.55-3.44-11.76-5.17-18.66-5.17s-13.11,1.67-18.65,4.99c-5.55,3.33-10.02,7.79-13.4,13.4-3.38,5.61-5.08,11.97-5.08,19.1v99.32h-42.74v-99.32c0-7.13-1.63-13.49-4.9-19.1-3.27-5.6-7.71-10.07-13.32-13.4-5.6-3.33-11.85-4.99-18.73-4.99s-12.97,1.72-18.58,5.17c-5.6,3.45-10.07,8-13.4,13.67-3.33,5.66-4.99,11.88-4.99,18.66v99.32h-42.74Z"/>
    <path class="cls-1" d="M925.71,1197.27h42.74v175.18h-42.74l-1.93-21.72c-4.78,7.82-11.12,14.16-19.01,19.01-7.88,4.84-17.19,7.26-27.94,7.26-12.96,0-25.1-2.45-36.43-7.36-11.33-4.9-21.29-11.67-29.87-20.32-8.58-8.64-15.3-18.63-20.14-29.96-4.85-11.33-7.27-23.47-7.27-36.44s2.3-24.23,6.92-35.21c4.62-10.98,11.06-20.61,19.36-28.9,8.29-8.29,17.87-14.77,28.72-19.44,10.86-4.67,22.54-7.01,35.04-7.01,11.56,0,21.93,2.57,31.1,7.71,9.16,5.14,16.96,11.68,23.38,19.62l-1.93-22.43ZM875.79,1335.84c9.1,0,17.16-2.28,24.17-6.83,7-4.55,12.49-10.71,16.46-18.48,3.97-7.76,5.96-16.32,5.96-25.66s-1.99-18.07-5.96-25.84c-3.96-7.76-9.49-13.93-16.54-18.48-7.07-4.56-15.1-6.83-24.09-6.83s-17.2,2.3-24.62,6.92c-7.41,4.62-13.31,10.77-17.69,18.48s-6.57,16.29-6.57,25.75,2.22,18.04,6.66,25.75c4.44,7.71,10.36,13.84,17.78,18.39,7.42,4.56,15.56,6.83,24.45,6.83Z"/>
    <path class="cls-1" d="M1003.66,1372.45l-.18-175.18h42.75l.17,15.59c5.95-6.3,13.07-11.3,21.37-14.98,8.29-3.68,17.22-5.52,26.81-5.52,6.41,0,12.84.94,19.26,2.81l-16.82,43.09c-4.44-1.75-8.87-2.63-13.31-2.63-6.9,0-13.17,1.67-18.83,4.99-5.67,3.33-10.16,7.82-13.48,13.49-3.33,5.66-4.99,11.94-4.99,18.83v99.5h-42.74Z"/>
    <path class="cls-1" d="M1232.27,1240.02h-33.99v132.43h-42.74v-132.43h-25.93v-42.74h25.93v-55h42.74v55h33.99v42.74Z"/>
    <path class="cls-1" d="M1263.79,1372.45v-245.24h144.87v42.74h-102.13v49.75h85.31v42.74h-85.31v110.01h-42.74Z"/>
    <path class="cls-1" d="M1497.29,1377c-16.12,0-30.8-4.14-44.05-12.44-13.25-8.29-23.82-19.41-31.7-33.37-7.89-13.95-11.83-29.4-11.83-46.33,0-12.85,2.28-24.85,6.83-36,4.55-11.15,10.83-20.96,18.83-29.43,7.99-8.47,17.3-15.09,27.94-19.88,10.62-4.79,21.96-7.18,33.98-7.18,16.12,0,30.8,4.14,44.06,12.44,13.25,8.29,23.82,19.44,31.71,33.45,7.88,14.02,11.82,29.55,11.82,46.6,0,12.73-2.28,24.64-6.83,35.73-4.56,11.1-10.83,20.87-18.83,29.34-8,8.47-17.29,15.1-27.85,19.89-10.58,4.79-21.93,7.18-34.08,7.18ZM1497.29,1334.26c8.53,0,16.17-2.28,22.96-6.83,6.77-4.55,12.11-10.57,16.02-18.04,3.91-7.48,5.87-15.65,5.87-24.52s-2.01-17.43-6.05-24.97c-4.02-7.53-9.45-13.54-16.29-18.04-6.83-4.49-14.34-6.74-22.51-6.74s-16,2.28-22.77,6.83c-6.77,4.56-12.14,10.63-16.12,18.22-3.96,7.59-5.95,15.83-5.95,24.7s2.05,17.58,6.13,25.05c4.09,7.48,9.55,13.4,16.38,17.78,6.83,4.38,14.27,6.57,22.33,6.57Z"/>
    <path class="cls-1" d="M1745.33,1197.27h42.74v175.18h-42.74l-1.93-21.72c-4.79,7.82-11.13,14.16-19.01,19.01-7.88,4.84-17.2,7.26-27.94,7.26-12.96,0-25.11-2.45-36.43-7.36-11.34-4.9-21.29-11.67-29.87-20.32-8.59-8.64-15.3-18.63-20.15-29.96-4.84-11.33-7.27-23.47-7.27-36.44s2.31-24.23,6.93-35.21c4.61-10.98,11.06-20.61,19.35-28.9,8.29-8.29,17.88-14.77,28.73-19.44,10.86-4.67,22.53-7.01,35.04-7.01,11.56,0,21.92,2.57,31.09,7.71,9.16,5.14,16.96,11.68,23.39,19.62l-1.93-22.43ZM1695.41,1335.84c9.11,0,17.17-2.28,24.17-6.83,7.01-4.55,12.49-10.71,16.47-18.48,3.97-7.76,5.96-16.32,5.96-25.66s-1.99-18.07-5.96-25.84c-3.97-7.76-9.49-13.93-16.55-18.48-7.07-4.56-15.1-6.83-24.09-6.83s-17.2,2.3-24.62,6.92c-7.41,4.62-13.31,10.77-17.69,18.48-4.38,7.71-6.57,16.29-6.57,25.75s2.22,18.04,6.66,25.75c4.44,7.71,10.36,13.84,17.78,18.39,7.42,4.56,15.56,6.83,24.44,6.83Z"/>
    <path class="cls-1" d="M1823.11,1372.45v-175.18h42.74v15.59c5.95-6.3,13.07-11.3,21.37-14.98,8.29-3.68,17.22-5.52,26.81-5.52,12.14,0,23.32,2.86,33.54,8.58,10.22,5.72,18.36,13.37,24.44,22.95,6.18-9.57,14.36-17.22,24.52-22.95,10.15-5.72,21.31-8.58,33.45-8.58,12.85,0,24.5,3.13,34.95,9.37,10.45,6.25,18.8,14.61,25.05,25.05,6.25,10.46,9.37,22.1,9.37,34.94v110.71h-42.74v-99.32c0-6.78-1.67-13-4.99-18.66-3.33-5.67-7.77-10.22-13.32-13.67-5.55-3.44-11.76-5.17-18.66-5.17s-13.11,1.67-18.66,4.99c-5.55,3.33-10.01,7.79-13.4,13.4-3.38,5.61-5.08,11.97-5.08,19.1v99.32h-42.74v-99.32c0-7.13-1.64-13.49-4.91-19.1-3.26-5.6-7.7-10.07-13.31-13.4-5.61-3.33-11.85-4.99-18.74-4.99s-12.96,1.72-18.57,5.17c-5.61,3.45-10.08,8-13.4,13.67-3.33,5.66-4.99,11.88-4.99,18.66v99.32h-42.74Z"/>
  </g>
  <g>
    <path class="cls-1" d="M2155.7,1178.45v10.88h-19.08v51.55h-10.88v-51.55h-19.09v-10.88h49.05Z"/>
    <path class="cls-1" d="M2160.25,1240.88l12.13-62.42h9.01l15.2,40,15.21-40h9l12.13,62.42h-11.1l-7.5-38.61-14.04,37.19h-7.45l-14.05-37.19-7.44,38.61h-11.11Z"/>
  </g>
</svg>